<svg width="360" height="342" viewBox="0 0 360 342" fill="none" xmlns="http://www.w3.org/2000/svg">
<path d="M78 0H84V6H78V0Z" fill="#24FF00"/>
<path d="M84 0H90V6H84V0Z" fill="#24FF00"/>
<path d="M90 0H96V6H90V0Z" fill="#24FF00"/>
<path d="M96 0H102V6H96V0Z" fill="#24FF00"/>
<path d="M258 0H264V6H258V0Z" fill="#24FF00"/>
<path d="M264 0H270V6H264V0Z" fill="#24FF00"/>
<path d="M270 0H276V6H270V0Z" fill="#24FF00"/>
<path d="M276 0H282V6H276V0Z" fill="#24FF00"/>
<path d="M282 0H288V6H282V0Z" fill="#24FF00"/>
<path d="M54 6H60V12H54V6Z" fill="#24FF00"/>
<path d="M60 6H66V12H60V6Z" fill="#24FF00"/>
<path d="M66 6H72V12H66V6Z" fill="#24FF00"/>
<path d="M72 6H78V12H72V6Z" fill="#24FF00"/>
<path d="M78 6H84V12H78V6Z" fill="#24FF00"/>
<path d="M84 6H90V12H84V6Z" fill="#24FF00"/>
<path d="M90 6H96V12H90V6Z" fill="#24FF00"/>
<path d="M96 6H102V12H96V6Z" fill="#24FF00"/>
<path d="M102 6H108V12H102V6Z" fill="#24FF00"/>
<path d="M108 6H114V12H108V6Z" fill="#24FF00"/>
<path d="M114 6H120V12H114V6Z" fill="#24FF00"/>
<path d="M240 6H246V12H240V6Z" fill="#24FF00"/>
<path d="M246 6H252V12H246V6Z" fill="#24FF00"/>
<path d="M252 6H258V12H252V6Z" fill="#24FF00"/>
<path d="M258 6H264V12H258V6Z" fill="#24FF00"/>
<path d="M264 6H270V12H264V6Z" fill="#24FF00"/>
<path d="M270 6H276V12H270V6Z" fill="#24FF00"/>
<path d="M276 6H282V12H276V6Z" fill="#24FF00"/>
<path d="M282 6H288V12H282V6Z" fill="#24FF00"/>
<path d="M288 6H294V12H288V6Z" fill="#24FF00"/>
<path d="M294 6H300V12H294V6Z" fill="#24FF00"/>
<path d="M300 6H306V12H300V6Z" fill="#24FF00"/>
<path d="M42 12H48V18H42V12Z" fill="#24FF00"/>
<path d="M48 12H54V18H48V12Z" fill="#24FF00"/>
<path d="M54 12H60V18H54V12Z" fill="#24FF00"/>
<path d="M60 12H66V18H60V12Z" fill="#24FF00"/>
<path d="M66 12H72V18H66V12Z" fill="#24FF00"/>
<path d="M72 12H78V18H72V12Z" fill="#24FF00"/>
<path d="M102 12H108V18H102V12Z" fill="#24FF00"/>
<path d="M108 12H114V18H108V12Z" fill="#24FF00"/>
<path d="M114 12H120V18H114V12Z" fill="#24FF00"/>
<path d="M120 12H126V18H120V12Z" fill="#24FF00"/>
<path d="M126 12H132V18H126V12Z" fill="#24FF00"/>
<path d="M228 12H234V18H228V12Z" fill="#24FF00"/>
<path d="M234 12H240V18H234V12Z" fill="#24FF00"/>
<path d="M240 12H246V18H240V12Z" fill="#24FF00"/>
<path d="M246 12H252V18H246V12Z" fill="#24FF00"/>
<path d="M252 12H258V18H252V12Z" fill="#24FF00"/>
<path d="M258 12H264V18H258V12Z" fill="#24FF00"/>
<path d="M282 12H288V18H282V12Z" fill="#24FF00"/>
<path d="M288 12H294V18H288V12Z" fill="#24FF00"/>
<path d="M294 12H300V18H294V12Z" fill="#24FF00"/>
<path d="M300 12H306V18H300V12Z" fill="#24FF00"/>
<path d="M306 12H312V18H306V12Z" fill="#24FF00"/>
<path d="M312 12H318V18H312V12Z" fill="#24FF00"/>
<path d="M36 18H42V24H36V18Z" fill="#24FF00"/>
<path d="M42 18H48V24H42V18Z" fill="#24FF00"/>
<path d="M48 18H54V24H48V18Z" fill="#24FF00"/>
<path d="M54 18H60V24H54V18Z" fill="#24FF00"/>
<path d="M60 18H66V24H60V18Z" fill="#24FF00"/>
<path d="M114 18H120V24H114V18Z" fill="#24FF00"/>
<path d="M120 18H126V24H120V18Z" fill="#24FF00"/>
<path d="M126 18H132V24H126V18Z" fill="#24FF00"/>
<path d="M132 18H138V24H132V18Z" fill="#24FF00"/>
<path d="M138 18H144V24H138V18Z" fill="#24FF00"/>
<path d="M222 18H228V24H222V18Z" fill="#24FF00"/>
<path d="M228 18H234V24H228V18Z" fill="#24FF00"/>
<path d="M234 18H240V24H234V18Z" fill="#24FF00"/>
<path d="M240 18H246V24H240V18Z" fill="#24FF00"/>
<path d="M300 18H306V24H300V18Z" fill="#24FF00"/>
<path d="M306 18H312V24H306V18Z" fill="#24FF00"/>
<path d="M312 18H318V24H312V18Z" fill="#24FF00"/>
<path d="M318 18H324V24H318V18Z" fill="#24FF00"/>
<path d="M30 24H36V30H30V24Z" fill="#24FF00"/>
<path d="M36 24H42V30H36V24Z" fill="#24FF00"/>
<path d="M42 24H48V30H42V24Z" fill="#24FF00"/>
<path d="M48 24H54V30H48V24Z" fill="#24FF00"/>
<path d="M54 24H60V30H54V24Z" fill="#24FF00"/>
<path d="M114 24H120V30H114V24Z" fill="#24FF00"/>
<path d="M120 24H126V30H120V24Z" fill="#24FF00"/>
<path d="M126 24H132V30H126V24Z" fill="#24FF00"/>
<path d="M132 24H138V30H132V24Z" fill="#24FF00"/>
<path d="M138 24H144V30H138V24Z" fill="#24FF00"/>
<path d="M144 24H150V30H144V24Z" fill="#24FF00"/>
<path d="M216 24H222V30H216V24Z" fill="#24FF00"/>
<path d="M222 24H228V30H222V24Z" fill="#24FF00"/>
<path d="M228 24H234V30H228V24Z" fill="#24FF00"/>
<path d="M234 24H240V30H234V24Z" fill="#24FF00"/>
<path d="M240 24H246V30H240V24Z" fill="#24FF00"/>
<path d="M300 24H306V30H300V24Z" fill="#24FF00"/>
<path d="M306 24H312V30H306V24Z" fill="#24FF00"/>
<path d="M312 24H318V30H312V24Z" fill="#24FF00"/>
<path d="M318 24H324V30H318V24Z" fill="#24FF00"/>
<path d="M324 24H330V30H324V24Z" fill="#24FF00"/>
<path d="M330 24H336V30H330V24Z" fill="#24FF00"/>
<path d="M24 30H30V36H24V30Z" fill="#24FF00"/>
<path d="M30 30H36V36H30V30Z" fill="#24FF00"/>
<path d="M36 30H42V36H36V30Z" fill="#24FF00"/>
<path d="M48 30H54V36H48V30Z" fill="#24FF00"/>
<path d="M54 30H60V36H54V30Z" fill="#24FF00"/>
<path d="M60 30H66V36H60V30Z" fill="#24FF00"/>
<path d="M108 30H114V36H108V30Z" fill="#24FF00"/>
<path d="M114 30H120V36H114V30Z" fill="#24FF00"/>
<path d="M120 30H126V36H120V30Z" fill="#24FF00"/>
<path d="M126 30H132V36H126V30Z" fill="#24FF00"/>
<path d="M138 30H144V36H138V30Z" fill="#24FF00"/>
<path d="M144 30H150V36H144V30Z" fill="#24FF00"/>
<path d="M150 30H156V36H150V30Z" fill="#24FF00"/>
<path d="M210 30H216V36H210V30Z" fill="#24FF00"/>
<path d="M216 30H222V36H216V30Z" fill="#24FF00"/>
<path d="M222 30H228V36H222V30Z" fill="#24FF00"/>
<path d="M234 30H240V36H234V30Z" fill="#24FF00"/>
<path d="M240 30H246V36H240V30Z" fill="#24FF00"/>
<path d="M246 30H252V36H246V30Z" fill="#24FF00"/>
<path d="M294 30H300V36H294V30Z" fill="#24FF00"/>
<path d="M300 30H306V36H300V30Z" fill="#24FF00"/>
<path d="M306 30H312V36H306V30Z" fill="#24FF00"/>
<path d="M318 30H324V36H318V30Z" fill="#24FF00"/>
<path d="M324 30H330V36H324V30Z" fill="#24FF00"/>
<path d="M330 30H336V36H330V30Z" fill="#24FF00"/>
<path d="M18 36H24V42H18V36Z" fill="#24FF00"/>
<path d="M24 36H30V42H24V36Z" fill="#24FF00"/>
<path d="M30 36H36V42H30V36Z" fill="#24FF00"/>
<path d="M54 36H60V42H54V36Z" fill="#24FF00"/>
<path d="M60 36H66V42H60V36Z" fill="#24FF00"/>
<path d="M66 36H72V42H66V36Z" fill="#24FF00"/>
<path d="M108 36H114V42H108V36Z" fill="#24FF00"/>
<path d="M114 36H120V42H114V36Z" fill="#24FF00"/>
<path d="M120 36H126V42H120V36Z" fill="#24FF00"/>
<path d="M144 36H150V42H144V36Z" fill="#24FF00"/>
<path d="M150 36H156V42H150V36Z" fill="#24FF00"/>
<path d="M156 36H162V42H156V36Z" fill="#24FF00"/>
<path d="M204 36H210V42H204V36Z" fill="#24FF00"/>
<path d="M210 36H216V42H210V36Z" fill="#24FF00"/>
<path d="M234 36H240V42H234V36Z" fill="#24FF00"/>
<path d="M240 36H246V42H240V36Z" fill="#24FF00"/>
<path d="M246 36H252V42H246V36Z" fill="#24FF00"/>
<path d="M252 36H258V42H252V36Z" fill="#24FF00"/>
<path d="M288 36H294V42H288V36Z" fill="#24FF00"/>
<path d="M294 36H300V42H294V36Z" fill="#24FF00"/>
<path d="M300 36H306V42H300V36Z" fill="#24FF00"/>
<path d="M306 36H312V42H306V36Z" fill="#24FF00"/>
<path d="M330 36H336V42H330V36Z" fill="#24FF00"/>
<path d="M336 36H342V42H336V36Z" fill="#24FF00"/>
<path d="M18 42H24V48H18V42Z" fill="#24FF00"/>
<path d="M24 42H30V48H24V42Z" fill="#24FF00"/>
<path d="M54 42H60V48H54V42Z" fill="#24FF00"/>
<path d="M60 42H66V48H60V42Z" fill="#24FF00"/>
<path d="M66 42H72V48H66V42Z" fill="#24FF00"/>
<path d="M72 42H78V48H72V42Z" fill="#24FF00"/>
<path d="M102 42H108V48H102V42Z" fill="#24FF00"/>
<path d="M108 42H114V48H108V42Z" fill="#24FF00"/>
<path d="M114 42H120V48H114V42Z" fill="#24FF00"/>
<path d="M120 42H126V48H120V42Z" fill="#24FF00"/>
<path d="M150 42H156V48H150V42Z" fill="#24FF00"/>
<path d="M156 42H162V48H156V42Z" fill="#24FF00"/>
<path d="M198 42H204V48H198V42Z" fill="#24FF00"/>
<path d="M204 42H210V48H204V42Z" fill="#24FF00"/>
<path d="M210 42H216V48H210V42Z" fill="#24FF00"/>
<path d="M240 42H246V48H240V42Z" fill="#24FF00"/>
<path d="M246 42H252V48H246V42Z" fill="#24FF00"/>
<path d="M252 42H258V48H252V42Z" fill="#24FF00"/>
<path d="M288 42H294V48H288V42Z" fill="#24FF00"/>
<path d="M294 42H300V48H294V42Z" fill="#24FF00"/>
<path d="M300 42H306V48H300V42Z" fill="#24FF00"/>
<path d="M330 42H336V48H330V42Z" fill="#24FF00"/>
<path d="M336 42H342V48H336V42Z" fill="#24FF00"/>
<path d="M342 42H348V48H342V42Z" fill="#24FF00"/>
<path d="M12 48H18V54H12V48Z" fill="#24FF00"/>
<path d="M18 48H24V54H18V48Z" fill="#24FF00"/>
<path d="M54 48H60V54H54V48Z" fill="#24FF00"/>
<path d="M60 48H66V54H60V48Z" fill="#24FF00"/>
<path d="M66 48H72V54H66V48Z" fill="#24FF00"/>
<path d="M72 48H78V54H72V48Z" fill="#24FF00"/>
<path d="M78 48H84V54H78V48Z" fill="#24FF00"/>
<path d="M96 48H102V54H96V48Z" fill="#24FF00"/>
<path d="M102 48H108V54H102V48Z" fill="#24FF00"/>
<path d="M108 48H114V54H108V48Z" fill="#24FF00"/>
<path d="M114 48H120V54H114V48Z" fill="#24FF00"/>
<path d="M150 48H156V54H150V48Z" fill="#24FF00"/>
<path d="M156 48H162V54H156V48Z" fill="#24FF00"/>
<path d="M162 48H168V54H162V48Z" fill="#24FF00"/>
<path d="M198 48H204V54H198V48Z" fill="#24FF00"/>
<path d="M204 48H210V54H204V48Z" fill="#24FF00"/>
<path d="M240 48H246V54H240V48Z" fill="#24FF00"/>
<path d="M246 48H252V54H246V48Z" fill="#24FF00"/>
<path d="M252 48H258V54H252V48Z" fill="#24FF00"/>
<path d="M258 48H264V54H258V48Z" fill="#24FF00"/>
<path d="M282 48H288V54H282V48Z" fill="#24FF00"/>
<path d="M288 48H294V54H288V48Z" fill="#24FF00"/>
<path d="M294 48H300V54H294V48Z" fill="#24FF00"/>
<path d="M300 48H306V54H300V48Z" fill="#24FF00"/>
<path d="M336 48H342V54H336V48Z" fill="#24FF00"/>
<path d="M342 48H348V54H342V48Z" fill="#24FF00"/>
<path d="M12 54H18V60H12V54Z" fill="#24FF00"/>
<path d="M18 54H24V60H18V54Z" fill="#24FF00"/>
<path d="M60 54H66V60H60V54Z" fill="#24FF00"/>
<path d="M66 54H72V60H66V54Z" fill="#24FF00"/>
<path d="M72 54H78V60H72V54Z" fill="#24FF00"/>
<path d="M78 54H84V60H78V54Z" fill="#24FF00"/>
<path d="M84 54H90V60H84V54Z" fill="#24FF00"/>
<path d="M90 54H96V60H90V54Z" fill="#24FF00"/>
<path d="M96 54H102V60H96V54Z" fill="#24FF00"/>
<path d="M102 54H108V60H102V54Z" fill="#24FF00"/>
<path d="M108 54H114V60H108V54Z" fill="#24FF00"/>
<path d="M114 54H120V60H114V54Z" fill="#24FF00"/>
<path d="M156 54H162V60H156V54Z" fill="#24FF00"/>
<path d="M162 54H168V60H162V54Z" fill="#24FF00"/>
<path d="M192 54H198V60H192V54Z" fill="#24FF00"/>
<path d="M198 54H204V60H198V54Z" fill="#24FF00"/>
<path d="M246 54H252V60H246V54Z" fill="#24FF00"/>
<path d="M252 54H258V60H252V54Z" fill="#24FF00"/>
<path d="M258 54H264V60H258V54Z" fill="#24FF00"/>
<path d="M264 54H270V60H264V54Z" fill="#24FF00"/>
<path d="M270 54H276V60H270V54Z" fill="#24FF00"/>
<path d="M276 54H282V60H276V54Z" fill="#24FF00"/>
<path d="M282 54H288V60H282V54Z" fill="#24FF00"/>
<path d="M288 54H294V60H288V54Z" fill="#24FF00"/>
<path d="M294 54H300V60H294V54Z" fill="#24FF00"/>
<path d="M342 54H348V60H342V54Z" fill="#24FF00"/>
<path d="M348 54H354V60H348V54Z" fill="#24FF00"/>
<path d="M6 60H12V66H6V60Z" fill="#24FF00"/>
<path d="M12 60H18V66H12V60Z" fill="#24FF00"/>
<path d="M60 60H66V66H60V60Z" fill="#24FF00"/>
<path d="M66 60H72V66H66V60Z" fill="#24FF00"/>
<path d="M72 60H78V66H72V60Z" fill="#24FF00"/>
<path d="M78 60H84V66H78V60Z" fill="#24FF00"/>
<path d="M84 60H90V66H84V60Z" fill="#24FF00"/>
<path d="M90 60H96V66H90V60Z" fill="#24FF00"/>
<path d="M96 60H102V66H96V60Z" fill="#24FF00"/>
<path d="M102 60H108V66H102V60Z" fill="#24FF00"/>
<path d="M108 60H114V66H108V60Z" fill="#24FF00"/>
<path d="M156 60H162V66H156V60Z" fill="#24FF00"/>
<path d="M162 60H168V66H162V60Z" fill="#24FF00"/>
<path d="M192 60H198V66H192V60Z" fill="#24FF00"/>
<path d="M198 60H204V66H198V60Z" fill="#24FF00"/>
<path d="M246 60H252V66H246V60Z" fill="#24FF00"/>
<path d="M252 60H258V66H252V60Z" fill="#24FF00"/>
<path d="M258 60H264V66H258V60Z" fill="#24FF00"/>
<path d="M264 60H270V66H264V60Z" fill="#24FF00"/>
<path d="M270 60H276V66H270V60Z" fill="#24FF00"/>
<path d="M276 60H282V66H276V60Z" fill="#24FF00"/>
<path d="M282 60H288V66H282V60Z" fill="#24FF00"/>
<path d="M288 60H294V66H288V60Z" fill="#24FF00"/>
<path d="M294 60H300V66H294V60Z" fill="#24FF00"/>
<path d="M342 60H348V66H342V60Z" fill="#24FF00"/>
<path d="M348 60H354V66H348V60Z" fill="#24FF00"/>
<path d="M6 66H12V72H6V66Z" fill="#24FF00"/>
<path d="M12 66H18V72H12V66Z" fill="#24FF00"/>
<path d="M60 66H66V72H60V66Z" fill="#24FF00"/>
<path d="M66 66H72V72H66V66Z" fill="#24FF00"/>
<path d="M72 66H78V72H72V66Z" fill="#24FF00"/>
<path d="M78 66H84V72H78V66Z" fill="#24FF00"/>
<path d="M84 66H90V72H84V66Z" fill="#24FF00"/>
<path d="M90 66H96V72H90V66Z" fill="#24FF00"/>
<path d="M96 66H102V72H96V66Z" fill="#24FF00"/>
<path d="M102 66H108V72H102V66Z" fill="#24FF00"/>
<path d="M108 66H114V72H108V66Z" fill="#24FF00"/>
<path d="M114 66H120V72H114V66Z" fill="#24FF00"/>
<path d="M156 66H162V72H156V66Z" fill="#24FF00"/>
<path d="M162 66H168V72H162V66Z" fill="#24FF00"/>
<path d="M168 66H174V72H168V66Z" fill="#24FF00"/>
<path d="M192 66H198V72H192V66Z" fill="#24FF00"/>
<path d="M198 66H204V72H198V66Z" fill="#24FF00"/>
<path d="M246 66H252V72H246V66Z" fill="#24FF00"/>
<path d="M252 66H258V72H252V66Z" fill="#24FF00"/>
<path d="M258 66H264V72H258V66Z" fill="#24FF00"/>
<path d="M264 66H270V72H264V66Z" fill="#24FF00"/>
<path d="M270 66H276V72H270V66Z" fill="#24FF00"/>
<path d="M276 66H282V72H276V66Z" fill="#24FF00"/>
<path d="M282 66H288V72H282V66Z" fill="#24FF00"/>
<path d="M288 66H294V72H288V66Z" fill="#24FF00"/>
<path d="M294 66H300V72H294V66Z" fill="#24FF00"/>
<path d="M342 66H348V72H342V66Z" fill="#24FF00"/>
<path d="M348 66H354V72H348V66Z" fill="#24FF00"/>
<path d="M6 72H12V78H6V72Z" fill="#24FF00"/>
<path d="M12 72H18V78H12V72Z" fill="#24FF00"/>
<path d="M54 72H60V78H54V72Z" fill="#24FF00"/>
<path d="M60 72H66V78H60V72Z" fill="#24FF00"/>
<path d="M66 72H72V78H66V72Z" fill="#24FF00"/>
<path d="M72 72H78V78H72V72Z" fill="#24FF00"/>
<path d="M78 72H84V78H78V72Z" fill="#24FF00"/>
<path d="M84 72H90V78H84V72Z" fill="#24FF00"/>
<path d="M90 72H96V78H90V72Z" fill="#24FF00"/>
<path d="M96 72H102V78H96V72Z" fill="#24FF00"/>
<path d="M102 72H108V78H102V72Z" fill="#24FF00"/>
<path d="M108 72H114V78H108V72Z" fill="#24FF00"/>
<path d="M114 72H120V78H114V72Z" fill="#24FF00"/>
<path d="M120 72H126V78H120V72Z" fill="#24FF00"/>
<path d="M162 72H168V78H162V72Z" fill="#24FF00"/>
<path d="M168 72H174V78H168V72Z" fill="#24FF00"/>
<path d="M192 72H198V78H192V72Z" fill="#24FF00"/>
<path d="M198 72H204V78H198V72Z" fill="#24FF00"/>
<path d="M240 72H246V78H240V72Z" fill="#24FF00"/>
<path d="M246 72H252V78H246V72Z" fill="#24FF00"/>
<path d="M252 72H258V78H252V72Z" fill="#24FF00"/>
<path d="M258 72H264V78H258V72Z" fill="#24FF00"/>
<path d="M264 72H270V78H264V72Z" fill="#24FF00"/>
<path d="M270 72H276V78H270V72Z" fill="#24FF00"/>
<path d="M276 72H282V78H276V72Z" fill="#24FF00"/>
<path d="M282 72H288V78H282V72Z" fill="#24FF00"/>
<path d="M288 72H294V78H288V72Z" fill="#24FF00"/>
<path d="M294 72H300V78H294V72Z" fill="#24FF00"/>
<path d="M300 72H306V78H300V72Z" fill="#24FF00"/>
<path d="M342 72H348V78H342V72Z" fill="#24FF00"/>
<path d="M348 72H354V78H348V72Z" fill="#24FF00"/>
<path d="M354 72H360V78H354V72Z" fill="#24FF00"/>
<path d="M6 78H12V84H6V78Z" fill="#24FF00"/>
<path d="M12 78H18V84H12V78Z" fill="#24FF00"/>
<path d="M18 78H24V84H18V78Z" fill="#24FF00"/>
<path d="M24 78H30V84H24V78Z" fill="#24FF00"/>
<path d="M30 78H36V84H30V78Z" fill="#24FF00"/>
<path d="M36 78H42V84H36V78Z" fill="#24FF00"/>
<path d="M42 78H48V84H42V78Z" fill="#24FF00"/>
<path d="M48 78H54V84H48V78Z" fill="#24FF00"/>
<path d="M54 78H60V84H54V78Z" fill="#24FF00"/>
<path d="M60 78H66V84H60V78Z" fill="#24FF00"/>
<path d="M66 78H72V84H66V78Z" fill="#24FF00"/>
<path d="M72 78H78V84H72V78Z" fill="#24FF00"/>
<path d="M78 78H84V84H78V78Z" fill="#24FF00"/>
<path d="M84 78H90V84H84V78Z" fill="#24FF00"/>
<path d="M90 78H96V84H90V78Z" fill="#24FF00"/>
<path d="M96 78H102V84H96V78Z" fill="#24FF00"/>
<path d="M102 78H108V84H102V78Z" fill="#24FF00"/>
<path d="M108 78H114V84H108V78Z" fill="#24FF00"/>
<path d="M114 78H120V84H114V78Z" fill="#24FF00"/>
<path d="M120 78H126V84H120V78Z" fill="#24FF00"/>
<path d="M126 78H132V84H126V78Z" fill="#24FF00"/>
<path d="M132 78H138V84H132V78Z" fill="#24FF00"/>
<path d="M138 78H144V84H138V78Z" fill="#24FF00"/>
<path d="M144 78H150V84H144V78Z" fill="#24FF00"/>
<path d="M150 78H156V84H150V78Z" fill="#24FF00"/>
<path d="M156 78H162V84H156V78Z" fill="#24FF00"/>
<path d="M162 78H168V84H162V78Z" fill="#24FF00"/>
<path d="M168 78H174V84H168V78Z" fill="#24FF00"/>
<path d="M186 78H192V84H186V78Z" fill="#24FF00"/>
<path d="M192 78H198V84H192V78Z" fill="#24FF00"/>
<path d="M198 78H204V84H198V78Z" fill="#24FF00"/>
<path d="M204 78H210V84H204V78Z" fill="#24FF00"/>
<path d="M210 78H216V84H210V78Z" fill="#24FF00"/>
<path d="M216 78H222V84H216V78Z" fill="#24FF00"/>
<path d="M222 78H228V84H222V78Z" fill="#24FF00"/>
<path d="M228 78H234V84H228V78Z" fill="#24FF00"/>
<path d="M234 78H240V84H234V78Z" fill="#24FF00"/>
<path d="M240 78H246V84H240V78Z" fill="#24FF00"/>
<path d="M246 78H252V84H246V78Z" fill="#24FF00"/>
<path d="M252 78H258V84H252V78Z" fill="#24FF00"/>
<path d="M258 78H264V84H258V78Z" fill="#24FF00"/>
<path d="M264 78H270V84H264V78Z" fill="#24FF00"/>
<path d="M270 78H276V84H270V78Z" fill="#24FF00"/>
<path d="M276 78H282V84H276V78Z" fill="#24FF00"/>
<path d="M282 78H288V84H282V78Z" fill="#24FF00"/>
<path d="M288 78H294V84H288V78Z" fill="#24FF00"/>
<path d="M294 78H300V84H294V78Z" fill="#24FF00"/>
<path d="M300 78H306V84H300V78Z" fill="#24FF00"/>
<path d="M306 78H312V84H306V78Z" fill="#24FF00"/>
<path d="M312 78H318V84H312V78Z" fill="#24FF00"/>
<path d="M318 78H324V84H318V78Z" fill="#24FF00"/>
<path d="M324 78H330V84H324V78Z" fill="#24FF00"/>
<path d="M330 78H336V84H330V78Z" fill="#24FF00"/>
<path d="M336 78H342V84H336V78Z" fill="#24FF00"/>
<path d="M342 78H348V84H342V78Z" fill="#24FF00"/>
<path d="M348 78H354V84H348V78Z" fill="#24FF00"/>
<path d="M354 78H360V84H354V78Z" fill="#24FF00"/>
<path d="M6 84H12V90H6V84Z" fill="#24FF00"/>
<path d="M12 84H18V90H12V84Z" fill="#24FF00"/>
<path d="M18 84H24V90H18V84Z" fill="#24FF00"/>
<path d="M24 84H30V90H24V84Z" fill="#24FF00"/>
<path d="M30 84H36V90H30V84Z" fill="#24FF00"/>
<path d="M36 84H42V90H36V84Z" fill="#24FF00"/>
<path d="M42 84H48V90H42V84Z" fill="#24FF00"/>
<path d="M48 84H54V90H48V84Z" fill="#24FF00"/>
<path d="M54 84H60V90H54V84Z" fill="#24FF00"/>
<path d="M60 84H66V90H60V84Z" fill="#24FF00"/>
<path d="M66 84H72V90H66V84Z" fill="#24FF00"/>
<path d="M72 84H78V90H72V84Z" fill="#24FF00"/>
<path d="M78 84H84V90H78V84Z" fill="#24FF00"/>
<path d="M84 84H90V90H84V84Z" fill="#24FF00"/>
<path d="M90 84H96V90H90V84Z" fill="#24FF00"/>
<path d="M96 84H102V90H96V84Z" fill="#24FF00"/>
<path d="M102 84H108V90H102V84Z" fill="#24FF00"/>
<path d="M108 84H114V90H108V84Z" fill="#24FF00"/>
<path d="M114 84H120V90H114V84Z" fill="#24FF00"/>
<path d="M120 84H126V90H120V84Z" fill="#24FF00"/>
<path d="M126 84H132V90H126V84Z" fill="#24FF00"/>
<path d="M132 84H138V90H132V84Z" fill="#24FF00"/>
<path d="M138 84H144V90H138V84Z" fill="#24FF00"/>
<path d="M144 84H150V90H144V84Z" fill="#24FF00"/>
<path d="M150 84H156V90H150V84Z" fill="#24FF00"/>
<path d="M156 84H162V90H156V84Z" fill="#24FF00"/>
<path d="M162 84H168V90H162V84Z" fill="#24FF00"/>
<path d="M168 84H174V90H168V84Z" fill="#24FF00"/>
<path d="M186 84H192V90H186V84Z" fill="#24FF00"/>
<path d="M192 84H198V90H192V84Z" fill="#24FF00"/>
<path d="M198 84H204V90H198V84Z" fill="#24FF00"/>
<path d="M204 84H210V90H204V84Z" fill="#24FF00"/>
<path d="M210 84H216V90H210V84Z" fill="#24FF00"/>
<path d="M216 84H222V90H216V84Z" fill="#24FF00"/>
<path d="M222 84H228V90H222V84Z" fill="#24FF00"/>
<path d="M228 84H234V90H228V84Z" fill="#24FF00"/>
<path d="M234 84H240V90H234V84Z" fill="#24FF00"/>
<path d="M240 84H246V90H240V84Z" fill="#24FF00"/>
<path d="M246 84H252V90H246V84Z" fill="#24FF00"/>
<path d="M252 84H258V90H252V84Z" fill="#24FF00"/>
<path d="M258 84H264V90H258V84Z" fill="#24FF00"/>
<path d="M264 84H270V90H264V84Z" fill="#24FF00"/>
<path d="M270 84H276V90H270V84Z" fill="#24FF00"/>
<path d="M276 84H282V90H276V84Z" fill="#24FF00"/>
<path d="M282 84H288V90H282V84Z" fill="#24FF00"/>
<path d="M288 84H294V90H288V84Z" fill="#24FF00"/>
<path d="M294 84H300V90H294V84Z" fill="#24FF00"/>
<path d="M300 84H306V90H300V84Z" fill="#24FF00"/>
<path d="M306 84H312V90H306V84Z" fill="#24FF00"/>
<path d="M312 84H318V90H312V84Z" fill="#24FF00"/>
<path d="M318 84H324V90H318V84Z" fill="#24FF00"/>
<path d="M324 84H330V90H324V84Z" fill="#24FF00"/>
<path d="M330 84H336V90H330V84Z" fill="#24FF00"/>
<path d="M336 84H342V90H336V84Z" fill="#24FF00"/>
<path d="M342 84H348V90H342V84Z" fill="#24FF00"/>
<path d="M348 84H354V90H348V84Z" fill="#24FF00"/>
<path d="M354 84H360V90H354V84Z" fill="#24FF00"/>
<path d="M6 90H12V96H6V90Z" fill="#24FF00"/>
<path d="M12 90H18V96H12V90Z" fill="#24FF00"/>
<path d="M18 90H24V96H18V90Z" fill="#24FF00"/>
<path d="M24 90H30V96H24V90Z" fill="#24FF00"/>
<path d="M30 90H36V96H30V90Z" fill="#24FF00"/>
<path d="M36 90H42V96H36V90Z" fill="#24FF00"/>
<path d="M42 90H48V96H42V90Z" fill="#24FF00"/>
<path d="M48 90H54V96H48V90Z" fill="#24FF00"/>
<path d="M54 90H60V96H54V90Z" fill="#24FF00"/>
<path d="M60 90H66V96H60V90Z" fill="#24FF00"/>
<path d="M66 90H72V96H66V90Z" fill="#24FF00"/>
<path d="M72 90H78V96H72V90Z" fill="#24FF00"/>
<path d="M78 90H84V96H78V90Z" fill="#24FF00"/>
<path d="M84 90H90V96H84V90Z" fill="#24FF00"/>
<path d="M90 90H96V96H90V90Z" fill="#24FF00"/>
<path d="M96 90H102V96H96V90Z" fill="#24FF00"/>
<path d="M102 90H108V96H102V90Z" fill="#24FF00"/>
<path d="M108 90H114V96H108V90Z" fill="#24FF00"/>
<path d="M114 90H120V96H114V90Z" fill="#24FF00"/>
<path d="M120 90H126V96H120V90Z" fill="#24FF00"/>
<path d="M126 90H132V96H126V90Z" fill="#24FF00"/>
<path d="M132 90H138V96H132V90Z" fill="#24FF00"/>
<path d="M138 90H144V96H138V90Z" fill="#24FF00"/>
<path d="M144 90H150V96H144V90Z" fill="#24FF00"/>
<path d="M150 90H156V96H150V90Z" fill="#24FF00"/>
<path d="M156 90H162V96H156V90Z" fill="#24FF00"/>
<path d="M162 90H168V96H162V90Z" fill="#24FF00"/>
<path d="M168 90H174V96H168V90Z" fill="#24FF00"/>
<path d="M192 90H198V96H192V90Z" fill="#24FF00"/>
<path d="M198 90H204V96H198V90Z" fill="#24FF00"/>
<path d="M204 90H210V96H204V90Z" fill="#24FF00"/>
<path d="M210 90H216V96H210V90Z" fill="#24FF00"/>
<path d="M216 90H222V96H216V90Z" fill="#24FF00"/>
<path d="M222 90H228V96H222V90Z" fill="#24FF00"/>
<path d="M228 90H234V96H228V90Z" fill="#24FF00"/>
<path d="M234 90H240V96H234V90Z" fill="#24FF00"/>
<path d="M240 90H246V96H240V90Z" fill="#24FF00"/>
<path d="M246 90H252V96H246V90Z" fill="#24FF00"/>
<path d="M252 90H258V96H252V90Z" fill="#24FF00"/>
<path d="M258 90H264V96H258V90Z" fill="#24FF00"/>
<path d="M264 90H270V96H264V90Z" fill="#24FF00"/>
<path d="M270 90H276V96H270V90Z" fill="#24FF00"/>
<path d="M276 90H282V96H276V90Z" fill="#24FF00"/>
<path d="M282 90H288V96H282V90Z" fill="#24FF00"/>
<path d="M288 90H294V96H288V90Z" fill="#24FF00"/>
<path d="M294 90H300V96H294V90Z" fill="#24FF00"/>
<path d="M300 90H306V96H300V90Z" fill="#24FF00"/>
<path d="M306 90H312V96H306V90Z" fill="#24FF00"/>
<path d="M312 90H318V96H312V90Z" fill="#24FF00"/>
<path d="M318 90H324V96H318V90Z" fill="#24FF00"/>
<path d="M324 90H330V96H324V90Z" fill="#24FF00"/>
<path d="M330 90H336V96H330V90Z" fill="#24FF00"/>
<path d="M336 90H342V96H336V90Z" fill="#24FF00"/>
<path d="M342 90H348V96H342V90Z" fill="#24FF00"/>
<path d="M348 90H354V96H348V90Z" fill="#24FF00"/>
<path d="M354 90H360V96H354V90Z" fill="#24FF00"/>
<path d="M6 96H12V102H6V96Z" fill="#24FF00"/>
<path d="M12 96H18V102H12V96Z" fill="#24FF00"/>
<path d="M54 96H60V102H54V96Z" fill="#24FF00"/>
<path d="M60 96H66V102H60V96Z" fill="#24FF00"/>
<path d="M66 96H72V102H66V96Z" fill="#24FF00"/>
<path d="M72 96H78V102H72V96Z" fill="#24FF00"/>
<path d="M78 96H84V102H78V96Z" fill="#24FF00"/>
<path d="M84 96H90V102H84V96Z" fill="#24FF00"/>
<path d="M90 96H96V102H90V96Z" fill="#24FF00"/>
<path d="M96 96H102V102H96V96Z" fill="#24FF00"/>
<path d="M102 96H108V102H102V96Z" fill="#24FF00"/>
<path d="M108 96H114V102H108V96Z" fill="#24FF00"/>
<path d="M114 96H120V102H114V96Z" fill="#24FF00"/>
<path d="M120 96H126V102H120V96Z" fill="#24FF00"/>
<path d="M162 96H168V102H162V96Z" fill="#24FF00"/>
<path d="M168 96H174V102H168V96Z" fill="#24FF00"/>
<path d="M192 96H198V102H192V96Z" fill="#24FF00"/>
<path d="M198 96H204V102H198V96Z" fill="#24FF00"/>
<path d="M240 96H246V102H240V96Z" fill="#24FF00"/>
<path d="M246 96H252V102H246V96Z" fill="#24FF00"/>
<path d="M252 96H258V102H252V96Z" fill="#24FF00"/>
<path d="M258 96H264V102H258V96Z" fill="#24FF00"/>
<path d="M264 96H270V102H264V96Z" fill="#24FF00"/>
<path d="M270 96H276V102H270V96Z" fill="#24FF00"/>
<path d="M276 96H282V102H276V96Z" fill="#24FF00"/>
<path d="M282 96H288V102H282V96Z" fill="#24FF00"/>
<path d="M288 96H294V102H288V96Z" fill="#24FF00"/>
<path d="M294 96H300V102H294V96Z" fill="#24FF00"/>
<path d="M300 96H306V102H300V96Z" fill="#24FF00"/>
<path d="M342 96H348V102H342V96Z" fill="#24FF00"/>
<path d="M348 96H354V102H348V96Z" fill="#24FF00"/>
<path d="M354 96H360V102H354V96Z" fill="#24FF00"/>
<path d="M6 102H12V108H6V102Z" fill="#24FF00"/>
<path d="M12 102H18V108H12V102Z" fill="#24FF00"/>
<path d="M60 102H66V108H60V102Z" fill="#24FF00"/>
<path d="M66 102H72V108H66V102Z" fill="#24FF00"/>
<path d="M72 102H78V108H72V102Z" fill="#24FF00"/>
<path d="M78 102H84V108H78V102Z" fill="#24FF00"/>
<path d="M84 102H90V108H84V102Z" fill="#24FF00"/>
<path d="M90 102H96V108H90V102Z" fill="#24FF00"/>
<path d="M96 102H102V108H96V102Z" fill="#24FF00"/>
<path d="M102 102H108V108H102V102Z" fill="#24FF00"/>
<path d="M108 102H114V108H108V102Z" fill="#24FF00"/>
<path d="M114 102H120V108H114V102Z" fill="#24FF00"/>
<path d="M156 102H162V108H156V102Z" fill="#24FF00"/>
<path d="M162 102H168V108H162V102Z" fill="#24FF00"/>
<path d="M168 102H174V108H168V102Z" fill="#24FF00"/>
<path d="M192 102H198V108H192V102Z" fill="#24FF00"/>
<path d="M198 102H204V108H198V102Z" fill="#24FF00"/>
<path d="M246 102H252V108H246V102Z" fill="#24FF00"/>
<path d="M252 102H258V108H252V102Z" fill="#24FF00"/>
<path d="M258 102H264V108H258V102Z" fill="#24FF00"/>
<path d="M264 102H270V108H264V102Z" fill="#24FF00"/>
<path d="M270 102H276V108H270V102Z" fill="#24FF00"/>
<path d="M276 102H282V108H276V102Z" fill="#24FF00"/>
<path d="M282 102H288V108H282V102Z" fill="#24FF00"/>
<path d="M288 102H294V108H288V102Z" fill="#24FF00"/>
<path d="M294 102H300V108H294V102Z" fill="#24FF00"/>
<path d="M342 102H348V108H342V102Z" fill="#24FF00"/>
<path d="M348 102H354V108H348V102Z" fill="#24FF00"/>
<path d="M6 108H12V114H6V108Z" fill="#24FF00"/>
<path d="M12 108H18V114H12V108Z" fill="#24FF00"/>
<path d="M60 108H66V114H60V108Z" fill="#24FF00"/>
<path d="M66 108H72V114H66V108Z" fill="#24FF00"/>
<path d="M72 108H78V114H72V108Z" fill="#24FF00"/>
<path d="M78 108H84V114H78V108Z" fill="#24FF00"/>
<path d="M84 108H90V114H84V108Z" fill="#24FF00"/>
<path d="M90 108H96V114H90V108Z" fill="#24FF00"/>
<path d="M96 108H102V114H96V108Z" fill="#24FF00"/>
<path d="M102 108H108V114H102V108Z" fill="#24FF00"/>
<path d="M108 108H114V114H108V108Z" fill="#24FF00"/>
<path d="M156 108H162V114H156V108Z" fill="#24FF00"/>
<path d="M162 108H168V114H162V108Z" fill="#24FF00"/>
<path d="M192 108H198V114H192V108Z" fill="#24FF00"/>
<path d="M198 108H204V114H198V108Z" fill="#24FF00"/>
<path d="M246 108H252V114H246V108Z" fill="#24FF00"/>
<path d="M252 108H258V114H252V108Z" fill="#24FF00"/>
<path d="M258 108H264V114H258V108Z" fill="#24FF00"/>
<path d="M264 108H270V114H264V108Z" fill="#24FF00"/>
<path d="M270 108H276V114H270V108Z" fill="#24FF00"/>
<path d="M276 108H282V114H276V108Z" fill="#24FF00"/>
<path d="M282 108H288V114H282V108Z" fill="#24FF00"/>
<path d="M288 108H294V114H288V108Z" fill="#24FF00"/>
<path d="M294 108H300V114H294V108Z" fill="#24FF00"/>
<path d="M342 108H348V114H342V108Z" fill="#24FF00"/>
<path d="M348 108H354V114H348V108Z" fill="#24FF00"/>
<path d="M12 114H18V120H12V114Z" fill="#24FF00"/>
<path d="M18 114H24V120H18V114Z" fill="#24FF00"/>
<path d="M60 114H66V120H60V114Z" fill="#24FF00"/>
<path d="M66 114H72V120H66V114Z" fill="#24FF00"/>
<path d="M72 114H78V120H72V114Z" fill="#24FF00"/>
<path d="M78 114H84V120H78V114Z" fill="#24FF00"/>
<path d="M84 114H90V120H84V114Z" fill="#24FF00"/>
<path d="M90 114H96V120H90V114Z" fill="#24FF00"/>
<path d="M96 114H102V120H96V114Z" fill="#24FF00"/>
<path d="M102 114H108V120H102V114Z" fill="#24FF00"/>
<path d="M108 114H114V120H108V114Z" fill="#24FF00"/>
<path d="M114 114H120V120H114V114Z" fill="#24FF00"/>
<path d="M156 114H162V120H156V114Z" fill="#24FF00"/>
<path d="M162 114H168V120H162V114Z" fill="#24FF00"/>
<path d="M192 114H198V120H192V114Z" fill="#24FF00"/>
<path d="M198 114H204V120H198V114Z" fill="#24FF00"/>
<path d="M246 114H252V120H246V114Z" fill="#24FF00"/>
<path d="M252 114H258V120H252V114Z" fill="#24FF00"/>
<path d="M258 114H264V120H258V114Z" fill="#24FF00"/>
<path d="M264 114H270V120H264V114Z" fill="#24FF00"/>
<path d="M270 114H276V120H270V114Z" fill="#24FF00"/>
<path d="M276 114H282V120H276V114Z" fill="#24FF00"/>
<path d="M282 114H288V120H282V114Z" fill="#24FF00"/>
<path d="M288 114H294V120H288V114Z" fill="#24FF00"/>
<path d="M294 114H300V120H294V114Z" fill="#24FF00"/>
<path d="M342 114H348V120H342V114Z" fill="#24FF00"/>
<path d="M348 114H354V120H348V114Z" fill="#24FF00"/>
<path d="M12 120H18V126H12V120Z" fill="#24FF00"/>
<path d="M18 120H24V126H18V120Z" fill="#24FF00"/>
<path d="M54 120H60V126H54V120Z" fill="#24FF00"/>
<path d="M60 120H66V126H60V120Z" fill="#24FF00"/>
<path d="M66 120H72V126H66V120Z" fill="#24FF00"/>
<path d="M72 120H78V126H72V120Z" fill="#24FF00"/>
<path d="M78 120H84V126H78V120Z" fill="#24FF00"/>
<path d="M96 120H102V126H96V120Z" fill="#24FF00"/>
<path d="M102 120H108V126H102V120Z" fill="#24FF00"/>
<path d="M108 120H114V126H108V120Z" fill="#24FF00"/>
<path d="M114 120H120V126H114V120Z" fill="#24FF00"/>
<path d="M150 120H156V126H150V120Z" fill="#24FF00"/>
<path d="M156 120H162V126H156V120Z" fill="#24FF00"/>
<path d="M162 120H168V126H162V120Z" fill="#24FF00"/>
<path d="M198 120H204V126H198V120Z" fill="#24FF00"/>
<path d="M204 120H210V126H204V120Z" fill="#24FF00"/>
<path d="M240 120H246V126H240V120Z" fill="#24FF00"/>
<path d="M246 120H252V126H246V120Z" fill="#24FF00"/>
<path d="M252 120H258V126H252V120Z" fill="#24FF00"/>
<path d="M258 120H264V126H258V120Z" fill="#24FF00"/>
<path d="M282 120H288V126H282V120Z" fill="#24FF00"/>
<path d="M288 120H294V126H288V120Z" fill="#24FF00"/>
<path d="M294 120H300V126H294V120Z" fill="#24FF00"/>
<path d="M300 120H306V126H300V120Z" fill="#24FF00"/>
<path d="M336 120H342V126H336V120Z" fill="#24FF00"/>
<path d="M342 120H348V126H342V120Z" fill="#24FF00"/>
<path d="M18 126H24V132H18V126Z" fill="#24FF00"/>
<path d="M24 126H30V132H24V126Z" fill="#24FF00"/>
<path d="M54 126H60V132H54V126Z" fill="#24FF00"/>
<path d="M60 126H66V132H60V126Z" fill="#24FF00"/>
<path d="M66 126H72V132H66V126Z" fill="#24FF00"/>
<path d="M72 126H78V132H72V126Z" fill="#24FF00"/>
<path d="M102 126H108V132H102V126Z" fill="#24FF00"/>
<path d="M108 126H114V132H108V126Z" fill="#24FF00"/>
<path d="M114 126H120V132H114V126Z" fill="#24FF00"/>
<path d="M120 126H126V132H120V126Z" fill="#24FF00"/>
<path d="M150 126H156V132H150V126Z" fill="#24FF00"/>
<path d="M156 126H162V132H156V126Z" fill="#24FF00"/>
<path d="M198 126H204V132H198V126Z" fill="#24FF00"/>
<path d="M204 126H210V132H204V126Z" fill="#24FF00"/>
<path d="M210 126H216V132H210V126Z" fill="#24FF00"/>
<path d="M240 126H246V132H240V126Z" fill="#24FF00"/>
<path d="M246 126H252V132H246V126Z" fill="#24FF00"/>
<path d="M252 126H258V132H252V126Z" fill="#24FF00"/>
<path d="M282 126H288V132H282V126Z" fill="#24FF00"/>
<path d="M288 126H294V132H288V126Z" fill="#24FF00"/>
<path d="M294 126H300V132H294V126Z" fill="#24FF00"/>
<path d="M300 126H306V132H300V126Z" fill="#24FF00"/>
<path d="M330 126H336V132H330V126Z" fill="#24FF00"/>
<path d="M336 126H342V132H336V126Z" fill="#24FF00"/>
<path d="M342 126H348V132H342V126Z" fill="#24FF00"/>
<path d="M18 132H24V138H18V132Z" fill="#24FF00"/>
<path d="M24 132H30V138H24V132Z" fill="#24FF00"/>
<path d="M30 132H36V138H30V132Z" fill="#24FF00"/>
<path d="M54 132H60V138H54V132Z" fill="#24FF00"/>
<path d="M60 132H66V138H60V132Z" fill="#24FF00"/>
<path d="M66 132H72V138H66V132Z" fill="#24FF00"/>
<path d="M108 132H114V138H108V132Z" fill="#24FF00"/>
<path d="M114 132H120V138H114V132Z" fill="#24FF00"/>
<path d="M120 132H126V138H120V132Z" fill="#24FF00"/>
<path d="M144 132H150V138H144V132Z" fill="#24FF00"/>
<path d="M150 132H156V138H150V132Z" fill="#24FF00"/>
<path d="M204 132H210V138H204V132Z" fill="#24FF00"/>
<path d="M210 132H216V138H210V132Z" fill="#24FF00"/>
<path d="M234 132H240V138H234V132Z" fill="#24FF00"/>
<path d="M240 132H246V138H240V132Z" fill="#24FF00"/>
<path d="M246 132H252V138H246V132Z" fill="#24FF00"/>
<path d="M252 132H258V138H252V132Z" fill="#24FF00"/>
<path d="M288 132H294V138H288V132Z" fill="#24FF00"/>
<path d="M294 132H300V138H294V132Z" fill="#24FF00"/>
<path d="M300 132H306V138H300V132Z" fill="#24FF00"/>
<path d="M306 132H312V138H306V132Z" fill="#24FF00"/>
<path d="M330 132H336V138H330V132Z" fill="#24FF00"/>
<path d="M336 132H342V138H336V132Z" fill="#24FF00"/>
<path d="M24 138H30V144H24V138Z" fill="#24FF00"/>
<path d="M30 138H36V144H30V138Z" fill="#24FF00"/>
<path d="M36 138H42V144H36V138Z" fill="#24FF00"/>
<path d="M48 138H54V144H48V138Z" fill="#24FF00"/>
<path d="M54 138H60V144H54V138Z" fill="#24FF00"/>
<path d="M60 138H66V144H60V138Z" fill="#24FF00"/>
<path d="M108 138H114V144H108V138Z" fill="#24FF00"/>
<path d="M114 138H120V144H114V138Z" fill="#24FF00"/>
<path d="M120 138H126V144H120V138Z" fill="#24FF00"/>
<path d="M126 138H132V144H126V138Z" fill="#24FF00"/>
<path d="M138 138H144V144H138V138Z" fill="#24FF00"/>
<path d="M144 138H150V144H144V138Z" fill="#24FF00"/>
<path d="M150 138H156V144H150V138Z" fill="#24FF00"/>
<path d="M210 138H216V144H210V138Z" fill="#24FF00"/>
<path d="M216 138H222V144H216V138Z" fill="#24FF00"/>
<path d="M222 138H228V144H222V138Z" fill="#24FF00"/>
<path d="M234 138H240V144H234V138Z" fill="#24FF00"/>
<path d="M240 138H246V144H240V138Z" fill="#24FF00"/>
<path d="M246 138H252V144H246V138Z" fill="#24FF00"/>
<path d="M294 138H300V144H294V138Z" fill="#24FF00"/>
<path d="M300 138H306V144H300V138Z" fill="#24FF00"/>
<path d="M306 138H312V144H306V138Z" fill="#24FF00"/>
<path d="M318 138H324V144H318V138Z" fill="#24FF00"/>
<path d="M324 138H330V144H324V138Z" fill="#24FF00"/>
<path d="M330 138H336V144H330V138Z" fill="#24FF00"/>
<path d="M30 144H36V150H30V144Z" fill="#24FF00"/>
<path d="M36 144H42V150H36V144Z" fill="#24FF00"/>
<path d="M42 144H48V150H42V144Z" fill="#24FF00"/>
<path d="M48 144H54V150H48V144Z" fill="#24FF00"/>
<path d="M54 144H60V150H54V144Z" fill="#24FF00"/>
<path d="M114 144H120V150H114V144Z" fill="#24FF00"/>
<path d="M120 144H126V150H120V144Z" fill="#24FF00"/>
<path d="M126 144H132V150H126V144Z" fill="#24FF00"/>
<path d="M132 144H138V150H132V144Z" fill="#24FF00"/>
<path d="M138 144H144V150H138V144Z" fill="#24FF00"/>
<path d="M144 144H150V150H144V144Z" fill="#24FF00"/>
<path d="M216 144H222V150H216V144Z" fill="#24FF00"/>
<path d="M222 144H228V150H222V144Z" fill="#24FF00"/>
<path d="M228 144H234V150H228V144Z" fill="#24FF00"/>
<path d="M234 144H240V150H234V144Z" fill="#24FF00"/>
<path d="M240 144H246V150H240V144Z" fill="#24FF00"/>
<path d="M300 144H306V150H300V144Z" fill="#24FF00"/>
<path d="M306 144H312V150H306V144Z" fill="#24FF00"/>
<path d="M312 144H318V150H312V144Z" fill="#24FF00"/>
<path d="M318 144H324V150H318V144Z" fill="#24FF00"/>
<path d="M324 144H330V150H324V144Z" fill="#24FF00"/>
<path d="M36 150H42V156H36V150Z" fill="#24FF00"/>
<path d="M42 150H48V156H42V150Z" fill="#24FF00"/>
<path d="M48 150H54V156H48V150Z" fill="#24FF00"/>
<path d="M54 150H60V156H54V150Z" fill="#24FF00"/>
<path d="M60 150H66V156H60V150Z" fill="#24FF00"/>
<path d="M114 150H120V156H114V150Z" fill="#24FF00"/>
<path d="M120 150H126V156H120V150Z" fill="#24FF00"/>
<path d="M126 150H132V156H126V150Z" fill="#24FF00"/>
<path d="M132 150H138V156H132V150Z" fill="#24FF00"/>
<path d="M138 150H144V156H138V150Z" fill="#24FF00"/>
<path d="M222 150H228V156H222V150Z" fill="#24FF00"/>
<path d="M228 150H234V156H228V150Z" fill="#24FF00"/>
<path d="M234 150H240V156H234V150Z" fill="#24FF00"/>
<path d="M240 150H246V156H240V150Z" fill="#24FF00"/>
<path d="M300 150H306V156H300V150Z" fill="#24FF00"/>
<path d="M306 150H312V156H306V150Z" fill="#24FF00"/>
<path d="M312 150H318V156H312V150Z" fill="#24FF00"/>
<path d="M318 150H324V156H318V150Z" fill="#24FF00"/>
<path d="M48 156H54V162H48V156Z" fill="#24FF00"/>
<path d="M54 156H60V162H54V156Z" fill="#24FF00"/>
<path d="M60 156H66V162H60V156Z" fill="#24FF00"/>
<path d="M66 156H72V162H66V156Z" fill="#24FF00"/>
<path d="M72 156H78V162H72V156Z" fill="#24FF00"/>
<path d="M102 156H108V162H102V156Z" fill="#24FF00"/>
<path d="M108 156H114V162H108V156Z" fill="#24FF00"/>
<path d="M114 156H120V162H114V156Z" fill="#24FF00"/>
<path d="M120 156H126V162H120V156Z" fill="#24FF00"/>
<path d="M126 156H132V162H126V156Z" fill="#24FF00"/>
<path d="M228 156H234V162H228V156Z" fill="#24FF00"/>
<path d="M234 156H240V162H234V156Z" fill="#24FF00"/>
<path d="M240 156H246V162H240V156Z" fill="#24FF00"/>
<path d="M246 156H252V162H246V156Z" fill="#24FF00"/>
<path d="M252 156H258V162H252V156Z" fill="#24FF00"/>
<path d="M282 156H288V162H282V156Z" fill="#24FF00"/>
<path d="M288 156H294V162H288V156Z" fill="#24FF00"/>
<path d="M294 156H300V162H294V156Z" fill="#24FF00"/>
<path d="M300 156H306V162H300V156Z" fill="#24FF00"/>
<path d="M306 156H312V162H306V156Z" fill="#24FF00"/>
<path d="M312 156H318V162H312V156Z" fill="#24FF00"/>
<path d="M54 162H60V168H54V162Z" fill="#24FF00"/>
<path d="M60 162H66V168H60V162Z" fill="#24FF00"/>
<path d="M66 162H72V168H66V162Z" fill="#24FF00"/>
<path d="M72 162H78V168H72V162Z" fill="#24FF00"/>
<path d="M78 162H84V168H78V162Z" fill="#24FF00"/>
<path d="M84 162H90V168H84V162Z" fill="#24FF00"/>
<path d="M90 162H96V168H90V162Z" fill="#24FF00"/>
<path d="M96 162H102V168H96V162Z" fill="#24FF00"/>
<path d="M102 162H108V168H102V162Z" fill="#24FF00"/>
<path d="M108 162H114V168H108V162Z" fill="#24FF00"/>
<path d="M114 162H120V168H114V162Z" fill="#24FF00"/>
<path d="M240 162H246V168H240V162Z" fill="#24FF00"/>
<path d="M246 162H252V168H246V162Z" fill="#24FF00"/>
<path d="M252 162H258V168H252V162Z" fill="#24FF00"/>
<path d="M258 162H264V168H258V162Z" fill="#24FF00"/>
<path d="M264 162H270V168H264V162Z" fill="#24FF00"/>
<path d="M270 162H276V168H270V162Z" fill="#24FF00"/>
<path d="M276 162H282V168H276V162Z" fill="#24FF00"/>
<path d="M282 162H288V168H282V162Z" fill="#24FF00"/>
<path d="M288 162H294V168H288V162Z" fill="#24FF00"/>
<path d="M294 162H300V168H294V162Z" fill="#24FF00"/>
<path d="M300 162H306V168H300V162Z" fill="#24FF00"/>
<path d="M84 168H90V174H84V168Z" fill="#24FF00"/>
<path d="M90 168H96V174H90V168Z" fill="#24FF00"/>
<path d="M264 168H270V174H264V168Z" fill="#24FF00"/>
<path d="M270 168H276V174H270V168Z" fill="#24FF00"/>
<path d="M276 168H282V174H276V168Z" fill="#24FF00"/>
<path d="M6 192H12V198H6V192Z" fill="#24FF00"/>
<path d="M12 192H18V198H12V192Z" fill="#24FF00"/>
<path d="M18 192H24V198H18V192Z" fill="#24FF00"/>
<path d="M48 192H54V198H48V192Z" fill="#24FF00"/>
<path d="M54 192H60V198H54V192Z" fill="#24FF00"/>
<path d="M60 192H66V198H60V192Z" fill="#24FF00"/>
<path d="M90 192H96V198H90V192Z" fill="#24FF00"/>
<path d="M96 192H102V198H96V192Z" fill="#24FF00"/>
<path d="M102 192H108V198H102V192Z" fill="#24FF00"/>
<path d="M132 192H138V198H132V192Z" fill="#24FF00"/>
<path d="M138 192H144V198H138V192Z" fill="#24FF00"/>
<path d="M144 192H150V198H144V192Z" fill="#24FF00"/>
<path d="M174 192H180V198H174V192Z" fill="#24FF00"/>
<path d="M180 192H186V198H180V192Z" fill="#24FF00"/>
<path d="M186 192H192V198H186V192Z" fill="#24FF00"/>
<path d="M216 192H222V198H216V192Z" fill="#24FF00"/>
<path d="M222 192H228V198H222V192Z" fill="#24FF00"/>
<path d="M228 192H234V198H228V192Z" fill="#24FF00"/>
<path d="M258 192H264V198H258V192Z" fill="#24FF00"/>
<path d="M264 192H270V198H264V192Z" fill="#24FF00"/>
<path d="M270 192H276V198H270V192Z" fill="#24FF00"/>
<path d="M300 192H306V198H300V192Z" fill="#24FF00"/>
<path d="M306 192H312V198H306V192Z" fill="#24FF00"/>
<path d="M312 192H318V198H312V192Z" fill="#24FF00"/>
<path d="M342 192H348V198H342V192Z" fill="#24FF00"/>
<path d="M348 192H354V198H348V192Z" fill="#24FF00"/>
<path d="M354 192H360V198H354V192Z" fill="#24FF00"/>
<path d="M0 198H6V204H0V198Z" fill="#24FF00"/>
<path d="M6 198H12V204H6V198Z" fill="#24FF00"/>
<path d="M12 198H18V204H12V198Z" fill="#24FF00"/>
<path d="M18 198H24V204H18V198Z" fill="#24FF00"/>
<path d="M42 198H48V204H42V198Z" fill="#24FF00"/>
<path d="M48 198H54V204H48V198Z" fill="#24FF00"/>
<path d="M54 198H60V204H54V198Z" fill="#24FF00"/>
<path d="M60 198H66V204H60V198Z" fill="#24FF00"/>
<path d="M84 198H90V204H84V198Z" fill="#24FF00"/>
<path d="M90 198H96V204H90V198Z" fill="#24FF00"/>
<path d="M96 198H102V204H96V198Z" fill="#24FF00"/>
<path d="M102 198H108V204H102V198Z" fill="#24FF00"/>
<path d="M126 198H132V204H126V198Z" fill="#24FF00"/>
<path d="M132 198H138V204H132V198Z" fill="#24FF00"/>
<path d="M138 198H144V204H138V198Z" fill="#24FF00"/>
<path d="M144 198H150V204H144V198Z" fill="#24FF00"/>
<path d="M168 198H174V204H168V198Z" fill="#24FF00"/>
<path d="M174 198H180V204H174V198Z" fill="#24FF00"/>
<path d="M180 198H186V204H180V198Z" fill="#24FF00"/>
<path d="M186 198H192V204H186V198Z" fill="#24FF00"/>
<path d="M210 198H216V204H210V198Z" fill="#24FF00"/>
<path d="M216 198H222V204H216V198Z" fill="#24FF00"/>
<path d="M222 198H228V204H222V198Z" fill="#24FF00"/>
<path d="M228 198H234V204H228V198Z" fill="#24FF00"/>
<path d="M252 198H258V204H252V198Z" fill="#24FF00"/>
<path d="M258 198H264V204H258V198Z" fill="#24FF00"/>
<path d="M264 198H270V204H264V198Z" fill="#24FF00"/>
<path d="M270 198H276V204H270V198Z" fill="#24FF00"/>
<path d="M294 198H300V204H294V198Z" fill="#24FF00"/>
<path d="M300 198H306V204H300V198Z" fill="#24FF00"/>
<path d="M306 198H312V204H306V198Z" fill="#24FF00"/>
<path d="M312 198H318V204H312V198Z" fill="#24FF00"/>
<path d="M336 198H342V204H336V198Z" fill="#24FF00"/>
<path d="M342 198H348V204H342V198Z" fill="#24FF00"/>
<path d="M348 198H354V204H348V198Z" fill="#24FF00"/>
<path d="M354 198H360V204H354V198Z" fill="#24FF00"/>
<path d="M0 204H6V210H0V204Z" fill="#24FF00"/>
<path d="M6 204H12V210H6V204Z" fill="#24FF00"/>
<path d="M12 204H18V210H12V204Z" fill="#24FF00"/>
<path d="M18 204H24V210H18V204Z" fill="#24FF00"/>
<path d="M48 204H54V210H48V204Z" fill="#24FF00"/>
<path d="M54 204H60V210H54V204Z" fill="#24FF00"/>
<path d="M60 204H66V210H60V204Z" fill="#24FF00"/>
<path d="M90 204H96V210H90V204Z" fill="#24FF00"/>
<path d="M96 204H102V210H96V204Z" fill="#24FF00"/>
<path d="M102 204H108V210H102V204Z" fill="#24FF00"/>
<path d="M132 204H138V210H132V204Z" fill="#24FF00"/>
<path d="M138 204H144V210H138V204Z" fill="#24FF00"/>
<path d="M144 204H150V210H144V204Z" fill="#24FF00"/>
<path d="M174 204H180V210H174V204Z" fill="#24FF00"/>
<path d="M180 204H186V210H180V204Z" fill="#24FF00"/>
<path d="M186 204H192V210H186V204Z" fill="#24FF00"/>
<path d="M216 204H222V210H216V204Z" fill="#24FF00"/>
<path d="M222 204H228V210H222V204Z" fill="#24FF00"/>
<path d="M228 204H234V210H228V204Z" fill="#24FF00"/>
<path d="M258 204H264V210H258V204Z" fill="#24FF00"/>
<path d="M264 204H270V210H264V204Z" fill="#24FF00"/>
<path d="M270 204H276V210H270V204Z" fill="#24FF00"/>
<path d="M300 204H306V210H300V204Z" fill="#24FF00"/>
<path d="M306 204H312V210H306V204Z" fill="#24FF00"/>
<path d="M312 204H318V210H312V204Z" fill="#24FF00"/>
<path d="M342 204H348V210H342V204Z" fill="#24FF00"/>
<path d="M348 204H354V210H348V204Z" fill="#24FF00"/>
<path d="M354 204H360V210H354V204Z" fill="#24FF00"/>
<path d="M12 210H18V216H12V210Z" fill="#24FF00"/>
<path d="M54 210H60V216H54V210Z" fill="#24FF00"/>
<path d="M96 210H102V216H96V210Z" fill="#24FF00"/>
<path d="M138 210H144V216H138V210Z" fill="#24FF00"/>
<path d="M180 210H186V216H180V210Z" fill="#24FF00"/>
<path d="M222 210H228V216H222V210Z" fill="#24FF00"/>
<path d="M264 210H270V216H264V210Z" fill="#24FF00"/>
<path d="M306 210H312V216H306V210Z" fill="#24FF00"/>
<path d="M348 210H354V216H348V210Z" fill="#24FF00"/>
<path d="M6 234H12V240H6V234Z" fill="#24FF00"/>
<path d="M12 234H18V240H12V234Z" fill="#24FF00"/>
<path d="M18 234H24V240H18V234Z" fill="#24FF00"/>
<path d="M48 234H54V240H48V234Z" fill="#24FF00"/>
<path d="M54 234H60V240H54V234Z" fill="#24FF00"/>
<path d="M60 234H66V240H60V234Z" fill="#24FF00"/>
<path d="M90 234H96V240H90V234Z" fill="#24FF00"/>
<path d="M96 234H102V240H96V234Z" fill="#24FF00"/>
<path d="M102 234H108V240H102V234Z" fill="#24FF00"/>
<path d="M132 234H138V240H132V234Z" fill="#24FF00"/>
<path d="M138 234H144V240H138V234Z" fill="#24FF00"/>
<path d="M144 234H150V240H144V234Z" fill="#24FF00"/>
<path d="M174 234H180V240H174V234Z" fill="#24FF00"/>
<path d="M180 234H186V240H180V234Z" fill="#24FF00"/>
<path d="M186 234H192V240H186V234Z" fill="#24FF00"/>
<path d="M216 234H222V240H216V234Z" fill="#24FF00"/>
<path d="M222 234H228V240H222V234Z" fill="#24FF00"/>
<path d="M228 234H234V240H228V234Z" fill="#24FF00"/>
<path d="M258 234H264V240H258V234Z" fill="#24FF00"/>
<path d="M264 234H270V240H264V234Z" fill="#24FF00"/>
<path d="M270 234H276V240H270V234Z" fill="#24FF00"/>
<path d="M300 234H306V240H300V234Z" fill="#24FF00"/>
<path d="M306 234H312V240H306V234Z" fill="#24FF00"/>
<path d="M312 234H318V240H312V234Z" fill="#24FF00"/>
<path d="M342 234H348V240H342V234Z" fill="#24FF00"/>
<path d="M348 234H354V240H348V234Z" fill="#24FF00"/>
<path d="M354 234H360V240H354V234Z" fill="#24FF00"/>
<path d="M0 240H6V246H0V240Z" fill="#24FF00"/>
<path d="M6 240H12V246H6V240Z" fill="#24FF00"/>
<path d="M12 240H18V246H12V240Z" fill="#24FF00"/>
<path d="M18 240H24V246H18V240Z" fill="#24FF00"/>
<path d="M42 240H48V246H42V240Z" fill="#24FF00"/>
<path d="M48 240H54V246H48V240Z" fill="#24FF00"/>
<path d="M54 240H60V246H54V240Z" fill="#24FF00"/>
<path d="M60 240H66V246H60V240Z" fill="#24FF00"/>
<path d="M84 240H90V246H84V240Z" fill="#24FF00"/>
<path d="M90 240H96V246H90V240Z" fill="#24FF00"/>
<path d="M96 240H102V246H96V240Z" fill="#24FF00"/>
<path d="M102 240H108V246H102V240Z" fill="#24FF00"/>
<path d="M126 240H132V246H126V240Z" fill="#24FF00"/>
<path d="M132 240H138V246H132V240Z" fill="#24FF00"/>
<path d="M138 240H144V246H138V240Z" fill="#24FF00"/>
<path d="M144 240H150V246H144V240Z" fill="#24FF00"/>
<path d="M168 240H174V246H168V240Z" fill="#24FF00"/>
<path d="M174 240H180V246H174V240Z" fill="#24FF00"/>
<path d="M180 240H186V246H180V240Z" fill="#24FF00"/>
<path d="M186 240H192V246H186V240Z" fill="#24FF00"/>
<path d="M210 240H216V246H210V240Z" fill="#24FF00"/>
<path d="M216 240H222V246H216V240Z" fill="#24FF00"/>
<path d="M222 240H228V246H222V240Z" fill="#24FF00"/>
<path d="M228 240H234V246H228V240Z" fill="#24FF00"/>
<path d="M252 240H258V246H252V240Z" fill="#24FF00"/>
<path d="M258 240H264V246H258V240Z" fill="#24FF00"/>
<path d="M264 240H270V246H264V240Z" fill="#24FF00"/>
<path d="M270 240H276V246H270V240Z" fill="#24FF00"/>
<path d="M294 240H300V246H294V240Z" fill="#24FF00"/>
<path d="M300 240H306V246H300V240Z" fill="#24FF00"/>
<path d="M306 240H312V246H306V240Z" fill="#24FF00"/>
<path d="M312 240H318V246H312V240Z" fill="#24FF00"/>
<path d="M336 240H342V246H336V240Z" fill="#24FF00"/>
<path d="M342 240H348V246H342V240Z" fill="#24FF00"/>
<path d="M348 240H354V246H348V240Z" fill="#24FF00"/>
<path d="M354 240H360V246H354V240Z" fill="#24FF00"/>
<path d="M0 246H6V252H0V246Z" fill="#24FF00"/>
<path d="M6 246H12V252H6V246Z" fill="#24FF00"/>
<path d="M12 246H18V252H12V246Z" fill="#24FF00"/>
<path d="M18 246H24V252H18V246Z" fill="#24FF00"/>
<path d="M42 246H48V252H42V246Z" fill="#24FF00"/>
<path d="M48 246H54V252H48V246Z" fill="#24FF00"/>
<path d="M54 246H60V252H54V246Z" fill="#24FF00"/>
<path d="M60 246H66V252H60V246Z" fill="#24FF00"/>
<path d="M90 246H96V252H90V246Z" fill="#24FF00"/>
<path d="M96 246H102V252H96V246Z" fill="#24FF00"/>
<path d="M102 246H108V252H102V246Z" fill="#24FF00"/>
<path d="M132 246H138V252H132V246Z" fill="#24FF00"/>
<path d="M138 246H144V252H138V246Z" fill="#24FF00"/>
<path d="M144 246H150V252H144V246Z" fill="#24FF00"/>
<path d="M174 246H180V252H174V246Z" fill="#24FF00"/>
<path d="M180 246H186V252H180V246Z" fill="#24FF00"/>
<path d="M186 246H192V252H186V246Z" fill="#24FF00"/>
<path d="M216 246H222V252H216V246Z" fill="#24FF00"/>
<path d="M222 246H228V252H222V246Z" fill="#24FF00"/>
<path d="M228 246H234V252H228V246Z" fill="#24FF00"/>
<path d="M258 246H264V252H258V246Z" fill="#24FF00"/>
<path d="M264 246H270V252H264V246Z" fill="#24FF00"/>
<path d="M270 246H276V252H270V246Z" fill="#24FF00"/>
<path d="M300 246H306V252H300V246Z" fill="#24FF00"/>
<path d="M306 246H312V252H306V246Z" fill="#24FF00"/>
<path d="M312 246H318V252H312V246Z" fill="#24FF00"/>
<path d="M342 246H348V252H342V246Z" fill="#24FF00"/>
<path d="M348 246H354V252H348V246Z" fill="#24FF00"/>
<path d="M354 246H360V252H354V246Z" fill="#24FF00"/>
<path d="M12 252H18V258H12V252Z" fill="#24FF00"/>
<path d="M54 252H60V258H54V252Z" fill="#24FF00"/>
<path d="M96 252H102V258H96V252Z" fill="#24FF00"/>
<path d="M138 252H144V258H138V252Z" fill="#24FF00"/>
<path d="M180 252H186V258H180V252Z" fill="#24FF00"/>
<path d="M222 252H228V258H222V252Z" fill="#24FF00"/>
<path d="M264 252H270V258H264V252Z" fill="#24FF00"/>
<path d="M306 252H312V258H306V252Z" fill="#24FF00"/>
<path d="M348 252H354V258H348V252Z" fill="#24FF00"/>
<path d="M6 276H12V282H6V276Z" fill="#24FF00"/>
<path d="M12 276H18V282H12V276Z" fill="#24FF00"/>
<path d="M48 276H54V282H48V276Z" fill="#24FF00"/>
<path d="M54 276H60V282H54V276Z" fill="#24FF00"/>
<path d="M60 276H66V282H60V276Z" fill="#24FF00"/>
<path d="M90 276H96V282H90V276Z" fill="#24FF00"/>
<path d="M96 276H102V282H96V276Z" fill="#24FF00"/>
<path d="M102 276H108V282H102V276Z" fill="#24FF00"/>
<path d="M132 276H138V282H132V276Z" fill="#24FF00"/>
<path d="M138 276H144V282H138V276Z" fill="#24FF00"/>
<path d="M144 276H150V282H144V276Z" fill="#24FF00"/>
<path d="M174 276H180V282H174V276Z" fill="#24FF00"/>
<path d="M180 276H186V282H180V276Z" fill="#24FF00"/>
<path d="M186 276H192V282H186V276Z" fill="#24FF00"/>
<path d="M216 276H222V282H216V276Z" fill="#24FF00"/>
<path d="M222 276H228V282H222V276Z" fill="#24FF00"/>
<path d="M228 276H234V282H228V276Z" fill="#24FF00"/>
<path d="M258 276H264V282H258V276Z" fill="#24FF00"/>
<path d="M264 276H270V282H264V276Z" fill="#24FF00"/>
<path d="M270 276H276V282H270V276Z" fill="#24FF00"/>
<path d="M300 276H306V282H300V276Z" fill="#24FF00"/>
<path d="M306 276H312V282H306V276Z" fill="#24FF00"/>
<path d="M312 276H318V282H312V276Z" fill="#24FF00"/>
<path d="M342 276H348V282H342V276Z" fill="#24FF00"/>
<path d="M348 276H354V282H348V276Z" fill="#24FF00"/>
<path d="M354 276H360V282H354V276Z" fill="#24FF00"/>
<path d="M0 282H6V288H0V282Z" fill="#24FF00"/>
<path d="M6 282H12V288H6V282Z" fill="#24FF00"/>
<path d="M12 282H18V288H12V282Z" fill="#24FF00"/>
<path d="M18 282H24V288H18V282Z" fill="#24FF00"/>
<path d="M42 282H48V288H42V282Z" fill="#24FF00"/>
<path d="M48 282H54V288H48V282Z" fill="#24FF00"/>
<path d="M54 282H60V288H54V282Z" fill="#24FF00"/>
<path d="M60 282H66V288H60V282Z" fill="#24FF00"/>
<path d="M84 282H90V288H84V282Z" fill="#24FF00"/>
<path d="M90 282H96V288H90V282Z" fill="#24FF00"/>
<path d="M96 282H102V288H96V282Z" fill="#24FF00"/>
<path d="M102 282H108V288H102V282Z" fill="#24FF00"/>
<path d="M126 282H132V288H126V282Z" fill="#24FF00"/>
<path d="M132 282H138V288H132V282Z" fill="#24FF00"/>
<path d="M138 282H144V288H138V282Z" fill="#24FF00"/>
<path d="M144 282H150V288H144V282Z" fill="#24FF00"/>
<path d="M168 282H174V288H168V282Z" fill="#24FF00"/>
<path d="M174 282H180V288H174V282Z" fill="#24FF00"/>
<path d="M180 282H186V288H180V282Z" fill="#24FF00"/>
<path d="M186 282H192V288H186V282Z" fill="#24FF00"/>
<path d="M210 282H216V288H210V282Z" fill="#24FF00"/>
<path d="M216 282H222V288H216V282Z" fill="#24FF00"/>
<path d="M222 282H228V288H222V282Z" fill="#24FF00"/>
<path d="M228 282H234V288H228V282Z" fill="#24FF00"/>
<path d="M252 282H258V288H252V282Z" fill="#24FF00"/>
<path d="M258 282H264V288H258V282Z" fill="#24FF00"/>
<path d="M264 282H270V288H264V282Z" fill="#24FF00"/>
<path d="M270 282H276V288H270V282Z" fill="#24FF00"/>
<path d="M294 282H300V288H294V282Z" fill="#24FF00"/>
<path d="M300 282H306V288H300V282Z" fill="#24FF00"/>
<path d="M306 282H312V288H306V282Z" fill="#24FF00"/>
<path d="M312 282H318V288H312V282Z" fill="#24FF00"/>
<path d="M336 282H342V288H336V282Z" fill="#24FF00"/>
<path d="M342 282H348V288H342V282Z" fill="#24FF00"/>
<path d="M348 282H354V288H348V282Z" fill="#24FF00"/>
<path d="M354 282H360V288H354V282Z" fill="#24FF00"/>
<path d="M0 288H6V294H0V288Z" fill="#24FF00"/>
<path d="M6 288H12V294H6V288Z" fill="#24FF00"/>
<path d="M12 288H18V294H12V288Z" fill="#24FF00"/>
<path d="M18 288H24V294H18V288Z" fill="#24FF00"/>
<path d="M42 288H48V294H42V288Z" fill="#24FF00"/>
<path d="M48 288H54V294H48V288Z" fill="#24FF00"/>
<path d="M54 288H60V294H54V288Z" fill="#24FF00"/>
<path d="M60 288H66V294H60V288Z" fill="#24FF00"/>
<path d="M90 288H96V294H90V288Z" fill="#24FF00"/>
<path d="M96 288H102V294H96V288Z" fill="#24FF00"/>
<path d="M102 288H108V294H102V288Z" fill="#24FF00"/>
<path d="M132 288H138V294H132V288Z" fill="#24FF00"/>
<path d="M138 288H144V294H138V288Z" fill="#24FF00"/>
<path d="M144 288H150V294H144V288Z" fill="#24FF00"/>
<path d="M174 288H180V294H174V288Z" fill="#24FF00"/>
<path d="M180 288H186V294H180V288Z" fill="#24FF00"/>
<path d="M186 288H192V294H186V288Z" fill="#24FF00"/>
<path d="M216 288H222V294H216V288Z" fill="#24FF00"/>
<path d="M222 288H228V294H222V288Z" fill="#24FF00"/>
<path d="M228 288H234V294H228V288Z" fill="#24FF00"/>
<path d="M258 288H264V294H258V288Z" fill="#24FF00"/>
<path d="M264 288H270V294H264V288Z" fill="#24FF00"/>
<path d="M270 288H276V294H270V288Z" fill="#24FF00"/>
<path d="M300 288H306V294H300V288Z" fill="#24FF00"/>
<path d="M306 288H312V294H306V288Z" fill="#24FF00"/>
<path d="M312 288H318V294H312V288Z" fill="#24FF00"/>
<path d="M342 288H348V294H342V288Z" fill="#24FF00"/>
<path d="M348 288H354V294H348V288Z" fill="#24FF00"/>
<path d="M354 288H360V294H354V288Z" fill="#24FF00"/>
<path d="M12 294H18V300H12V294Z" fill="#24FF00"/>
<path d="M54 294H60V300H54V294Z" fill="#24FF00"/>
<path d="M96 294H102V300H96V294Z" fill="#24FF00"/>
<path d="M138 294H144V300H138V294Z" fill="#24FF00"/>
<path d="M180 294H186V300H180V294Z" fill="#24FF00"/>
<path d="M222 294H228V300H222V294Z" fill="#24FF00"/>
<path d="M264 294H270V300H264V294Z" fill="#24FF00"/>
<path d="M306 294H312V300H306V294Z" fill="#24FF00"/>
<path d="M348 294H354V300H348V294Z" fill="#24FF00"/>
<path d="M6 318H12V324H6V318Z" fill="#24FF00"/>
<path d="M12 318H18V324H12V318Z" fill="#24FF00"/>
<path d="M48 318H54V324H48V318Z" fill="#24FF00"/>
<path d="M54 318H60V324H54V318Z" fill="#24FF00"/>
<path d="M90 318H96V324H90V318Z" fill="#24FF00"/>
<path d="M96 318H102V324H96V318Z" fill="#24FF00"/>
<path d="M102 318H108V324H102V318Z" fill="#24FF00"/>
<path d="M132 318H138V324H132V318Z" fill="#24FF00"/>
<path d="M138 318H144V324H138V318Z" fill="#24FF00"/>
<path d="M144 318H150V324H144V318Z" fill="#24FF00"/>
<path d="M174 318H180V324H174V318Z" fill="#24FF00"/>
<path d="M180 318H186V324H180V318Z" fill="#24FF00"/>
<path d="M186 318H192V324H186V318Z" fill="#24FF00"/>
<path d="M216 318H222V324H216V318Z" fill="#24FF00"/>
<path d="M222 318H228V324H222V318Z" fill="#24FF00"/>
<path d="M228 318H234V324H228V318Z" fill="#24FF00"/>
<path d="M258 318H264V324H258V318Z" fill="#24FF00"/>
<path d="M264 318H270V324H264V318Z" fill="#24FF00"/>
<path d="M270 318H276V324H270V318Z" fill="#24FF00"/>
<path d="M300 318H306V324H300V318Z" fill="#24FF00"/>
<path d="M306 318H312V324H306V318Z" fill="#24FF00"/>
<path d="M312 318H318V324H312V318Z" fill="#24FF00"/>
<path d="M342 318H348V324H342V318Z" fill="#24FF00"/>
<path d="M348 318H354V324H348V318Z" fill="#24FF00"/>
<path d="M354 318H360V324H354V318Z" fill="#24FF00"/>
<path d="M0 324H6V330H0V324Z" fill="#24FF00"/>
<path d="M6 324H12V330H6V324Z" fill="#24FF00"/>
<path d="M12 324H18V330H12V324Z" fill="#24FF00"/>
<path d="M18 324H24V330H18V324Z" fill="#24FF00"/>
<path d="M42 324H48V330H42V324Z" fill="#24FF00"/>
<path d="M48 324H54V330H48V324Z" fill="#24FF00"/>
<path d="M54 324H60V330H54V324Z" fill="#24FF00"/>
<path d="M60 324H66V330H60V324Z" fill="#24FF00"/>
<path d="M84 324H90V330H84V324Z" fill="#24FF00"/>
<path d="M90 324H96V330H90V324Z" fill="#24FF00"/>
<path d="M96 324H102V330H96V324Z" fill="#24FF00"/>
<path d="M102 324H108V330H102V324Z" fill="#24FF00"/>
<path d="M126 324H132V330H126V324Z" fill="#24FF00"/>
<path d="M132 324H138V330H132V324Z" fill="#24FF00"/>
<path d="M138 324H144V330H138V324Z" fill="#24FF00"/>
<path d="M144 324H150V330H144V324Z" fill="#24FF00"/>
<path d="M168 324H174V330H168V324Z" fill="#24FF00"/>
<path d="M174 324H180V330H174V324Z" fill="#24FF00"/>
<path d="M180 324H186V330H180V324Z" fill="#24FF00"/>
<path d="M186 324H192V330H186V324Z" fill="#24FF00"/>
<path d="M210 324H216V330H210V324Z" fill="#24FF00"/>
<path d="M216 324H222V330H216V324Z" fill="#24FF00"/>
<path d="M222 324H228V330H222V324Z" fill="#24FF00"/>
<path d="M228 324H234V330H228V324Z" fill="#24FF00"/>
<path d="M252 324H258V330H252V324Z" fill="#24FF00"/>
<path d="M258 324H264V330H258V324Z" fill="#24FF00"/>
<path d="M264 324H270V330H264V324Z" fill="#24FF00"/>
<path d="M270 324H276V330H270V324Z" fill="#24FF00"/>
<path d="M294 324H300V330H294V324Z" fill="#24FF00"/>
<path d="M300 324H306V330H300V324Z" fill="#24FF00"/>
<path d="M306 324H312V330H306V324Z" fill="#24FF00"/>
<path d="M312 324H318V330H312V324Z" fill="#24FF00"/>
<path d="M336 324H342V330H336V324Z" fill="#24FF00"/>
<path d="M342 324H348V330H342V324Z" fill="#24FF00"/>
<path d="M348 324H354V330H348V324Z" fill="#24FF00"/>
<path d="M354 324H360V330H354V324Z" fill="#24FF00"/>
<path d="M0 330H6V336H0V330Z" fill="#24FF00"/>
<path d="M6 330H12V336H6V330Z" fill="#24FF00"/>
<path d="M12 330H18V336H12V330Z" fill="#24FF00"/>
<path d="M18 330H24V336H18V330Z" fill="#24FF00"/>
<path d="M42 330H48V336H42V330Z" fill="#24FF00"/>
<path d="M48 330H54V336H48V330Z" fill="#24FF00"/>
<path d="M54 330H60V336H54V330Z" fill="#24FF00"/>
<path d="M60 330H66V336H60V330Z" fill="#24FF00"/>
<path d="M84 330H90V336H84V330Z" fill="#24FF00"/>
<path d="M90 330H96V336H90V330Z" fill="#24FF00"/>
<path d="M96 330H102V336H96V330Z" fill="#24FF00"/>
<path d="M102 330H108V336H102V330Z" fill="#24FF00"/>
<path d="M132 330H138V336H132V330Z" fill="#24FF00"/>
<path d="M138 330H144V336H138V330Z" fill="#24FF00"/>
<path d="M144 330H150V336H144V330Z" fill="#24FF00"/>
<path d="M174 330H180V336H174V330Z" fill="#24FF00"/>
<path d="M180 330H186V336H180V330Z" fill="#24FF00"/>
<path d="M186 330H192V336H186V330Z" fill="#24FF00"/>
<path d="M216 330H222V336H216V330Z" fill="#24FF00"/>
<path d="M222 330H228V336H222V330Z" fill="#24FF00"/>
<path d="M228 330H234V336H228V330Z" fill="#24FF00"/>
<path d="M258 330H264V336H258V330Z" fill="#24FF00"/>
<path d="M264 330H270V336H264V330Z" fill="#24FF00"/>
<path d="M270 330H276V336H270V330Z" fill="#24FF00"/>
<path d="M300 330H306V336H300V330Z" fill="#24FF00"/>
<path d="M306 330H312V336H306V330Z" fill="#24FF00"/>
<path d="M312 330H318V336H312V330Z" fill="#24FF00"/>
<path d="M342 330H348V336H342V330Z" fill="#24FF00"/>
<path d="M348 330H354V336H348V330Z" fill="#24FF00"/>
<path d="M354 330H360V336H354V330Z" fill="#24FF00"/>
<path d="M6 336H12V342H6V336Z" fill="#24FF00"/>
<path d="M12 336H18V342H12V336Z" fill="#24FF00"/>
<path d="M48 336H54V342H48V336Z" fill="#24FF00"/>
<path d="M54 336H60V342H54V336Z" fill="#24FF00"/>
<path d="M96 336H102V342H96V336Z" fill="#24FF00"/>
<path d="M138 336H144V342H138V336Z" fill="#24FF00"/>
<path d="M180 336H186V342H180V336Z" fill="#24FF00"/>
<path d="M222 336H228V342H222V336Z" fill="#24FF00"/>
<path d="M264 336H270V342H264V336Z" fill="#24FF00"/>
<path d="M306 336H312V342H306V336Z" fill="#24FF00"/>
<path d="M348 336H354V342H348V336Z" fill="#24FF00"/>
</svg>
