<svg width="307" height="289" viewBox="0 0 307 289" fill="none" xmlns="http://www.w3.org/2000/svg">
<path d="M288.815 279.925C288.815 274.938 292.856 270.895 297.84 270.895C302.825 270.895 306.866 274.938 306.866 279.925C306.866 284.912 302.825 288.955 297.84 288.955C292.856 288.955 288.815 284.912 288.815 279.925Z" fill="#24FF00"/>
<path d="M252.713 279.925C252.713 274.938 256.754 270.895 261.738 270.895C266.723 270.895 270.764 274.938 270.764 279.925C270.764 284.912 266.723 288.955 261.738 288.955C256.754 288.955 252.713 284.912 252.713 279.925Z" fill="#24FF00"/>
<path d="M216.611 279.925C216.611 274.938 220.652 270.895 225.637 270.895C230.621 270.895 234.662 274.938 234.662 279.925C234.662 284.912 230.621 288.955 225.637 288.955C220.652 288.955 216.611 284.912 216.611 279.925Z" fill="#24FF00"/>
<path d="M180.509 279.925C180.509 274.938 184.55 270.895 189.535 270.895C194.519 270.895 198.56 274.938 198.56 279.925C198.56 284.912 194.519 288.955 189.535 288.955C184.55 288.955 180.509 284.912 180.509 279.925Z" fill="#24FF00"/>
<path d="M144.407 279.925C144.407 274.938 148.448 270.895 153.433 270.895C158.417 270.895 162.458 274.938 162.458 279.925C162.458 284.912 158.417 288.955 153.433 288.955C148.448 288.955 144.407 284.912 144.407 279.925Z" fill="#24FF00"/>
<path d="M108.306 279.925C108.306 274.938 112.346 270.895 117.331 270.895C122.316 270.895 126.356 274.938 126.356 279.925C126.356 284.912 122.316 288.955 117.331 288.955C112.346 288.955 108.306 284.912 108.306 279.925Z" fill="#24FF00"/>
<path d="M72.2037 279.925C72.2037 274.938 76.2446 270.895 81.2292 270.895C86.2138 270.895 90.2546 274.938 90.2546 279.925C90.2546 284.912 86.2138 288.955 81.2292 288.955C76.2446 288.955 72.2037 284.912 72.2037 279.925Z" fill="#24FF00"/>
<path d="M36.1019 279.925C36.1019 274.938 40.1427 270.895 45.1273 270.895C50.112 270.895 54.1528 274.938 54.1528 279.925C54.1528 284.912 50.112 288.955 45.1273 288.955C40.1427 288.955 36.1019 284.912 36.1019 279.925Z" fill="#24FF00"/>
<path d="M3.21415e-05 279.925C3.25774e-05 274.938 4.04087 270.895 9.02549 270.895C14.0101 270.895 18.051 274.938 18.051 279.925C18.051 284.912 14.0101 288.955 9.02549 288.955C4.04087 288.955 3.17055e-05 284.912 3.21415e-05 279.925Z" fill="#24FF00"/>
<path d="M288.815 243.806C288.815 238.819 292.856 234.776 297.84 234.776C302.825 234.776 306.866 238.819 306.866 243.806C306.866 248.793 302.825 252.836 297.84 252.836C292.856 252.836 288.815 248.793 288.815 243.806Z" fill="#24FF00"/>
<path d="M252.713 243.806C252.713 238.819 256.754 234.776 261.738 234.776C266.723 234.776 270.764 238.819 270.764 243.806C270.764 248.793 266.723 252.836 261.738 252.836C256.754 252.836 252.713 248.793 252.713 243.806Z" fill="#24FF00"/>
<path d="M216.611 243.806C216.611 238.819 220.652 234.776 225.637 234.776C230.621 234.776 234.662 238.819 234.662 243.806C234.662 248.793 230.621 252.836 225.637 252.836C220.652 252.836 216.611 248.793 216.611 243.806Z" fill="#24FF00"/>
<path d="M180.509 243.806C180.509 238.819 184.55 234.776 189.535 234.776C194.519 234.776 198.56 238.819 198.56 243.806C198.56 248.793 194.519 252.836 189.535 252.836C184.55 252.836 180.509 248.793 180.509 243.806Z" fill="#24FF00"/>
<path d="M144.407 243.806C144.407 238.819 148.448 234.776 153.433 234.776C158.418 234.776 162.458 238.819 162.458 243.806C162.458 248.793 158.418 252.836 153.433 252.836C148.448 252.836 144.407 248.793 144.407 243.806Z" fill="#24FF00"/>
<path d="M108.306 243.806C108.306 238.819 112.346 234.776 117.331 234.776C122.316 234.776 126.357 238.819 126.356 243.806C126.356 248.793 122.316 252.836 117.331 252.836C112.346 252.836 108.306 248.793 108.306 243.806Z" fill="#24FF00"/>
<path d="M72.2037 243.806C72.2037 238.819 76.2446 234.776 81.2292 234.776C86.2138 234.776 90.2546 238.819 90.2546 243.806C90.2546 248.793 86.2138 252.836 81.2292 252.836C76.2446 252.836 72.2037 248.793 72.2037 243.806Z" fill="#24FF00"/>
<path d="M36.1019 243.806C36.1019 238.819 40.1427 234.776 45.1273 234.776C50.112 234.776 54.1528 238.819 54.1528 243.806C54.1528 248.793 50.112 252.836 45.1273 252.836C40.1427 252.836 36.1019 248.793 36.1019 243.806Z" fill="#24FF00"/>
<path d="M3.52991e-05 243.806C3.57351e-05 238.819 4.04088 234.776 9.0255 234.776C14.0101 234.776 18.051 238.819 18.051 243.806C18.051 248.793 14.0101 252.836 9.02549 252.836C4.04087 252.836 3.48631e-05 248.793 3.52991e-05 243.806Z" fill="#24FF00"/>
<path d="M288.815 207.686C288.815 202.699 292.856 198.657 297.84 198.657C302.825 198.657 306.866 202.699 306.866 207.686C306.866 212.673 302.825 216.716 297.84 216.716C292.856 216.716 288.815 212.673 288.815 207.686Z" fill="#24FF00"/>
<path d="M252.713 207.686C252.713 202.699 256.754 198.657 261.738 198.657C266.723 198.657 270.764 202.699 270.764 207.686C270.764 212.673 266.723 216.716 261.738 216.716C256.754 216.716 252.713 212.673 252.713 207.686Z" fill="#24FF00"/>
<path d="M216.611 207.686C216.611 202.699 220.652 198.657 225.637 198.657C230.621 198.657 234.662 202.699 234.662 207.686C234.662 212.673 230.621 216.716 225.637 216.716C220.652 216.716 216.611 212.673 216.611 207.686Z" fill="#24FF00"/>
<path d="M180.509 207.686C180.509 202.699 184.55 198.657 189.535 198.657C194.519 198.657 198.56 202.699 198.56 207.686C198.56 212.673 194.519 216.716 189.535 216.716C184.55 216.716 180.509 212.673 180.509 207.686Z" fill="#24FF00"/>
<path d="M144.407 207.686C144.407 202.699 148.448 198.657 153.433 198.657C158.418 198.657 162.458 202.699 162.458 207.686C162.458 212.673 158.418 216.716 153.433 216.716C148.448 216.716 144.407 212.673 144.407 207.686Z" fill="#24FF00"/>
<path d="M108.306 207.686C108.306 202.699 112.346 198.657 117.331 198.657C122.316 198.657 126.357 202.699 126.357 207.686C126.357 212.673 122.316 216.716 117.331 216.716C112.346 216.716 108.306 212.673 108.306 207.686Z" fill="#24FF00"/>
<path d="M72.2037 207.686C72.2037 202.699 76.2446 198.657 81.2292 198.657C86.2138 198.657 90.2546 202.699 90.2546 207.686C90.2546 212.673 86.2138 216.716 81.2292 216.716C76.2446 216.716 72.2037 212.673 72.2037 207.686Z" fill="#24FF00"/>
<path d="M36.1019 207.686C36.1019 202.699 40.1427 198.657 45.1273 198.657C50.112 198.657 54.1528 202.699 54.1528 207.686C54.1528 212.673 50.112 216.716 45.1273 216.716C40.1427 216.716 36.1019 212.673 36.1019 207.686Z" fill="#24FF00"/>
<path d="M3.84568e-05 207.686C3.88928e-05 202.699 4.04088 198.657 9.0255 198.657C14.0101 198.657 18.051 202.699 18.051 207.686C18.051 212.673 14.0101 216.716 9.0255 216.716C4.04088 216.716 3.80208e-05 212.673 3.84568e-05 207.686Z" fill="#24FF00"/>
<path d="M288.815 171.567C288.815 166.58 292.856 162.537 297.84 162.537C302.825 162.537 306.866 166.58 306.866 171.567C306.866 176.554 302.825 180.597 297.84 180.597C292.856 180.597 288.815 176.554 288.815 171.567Z" fill="#24FF00"/>
<path d="M252.713 171.567C252.713 166.58 256.754 162.537 261.738 162.537C266.723 162.537 270.764 166.58 270.764 171.567C270.764 176.554 266.723 180.597 261.738 180.597C256.754 180.597 252.713 176.554 252.713 171.567Z" fill="#24FF00"/>
<path d="M216.611 171.567C216.611 166.58 220.652 162.537 225.637 162.537C230.621 162.537 234.662 166.58 234.662 171.567C234.662 176.554 230.621 180.597 225.637 180.597C220.652 180.597 216.611 176.554 216.611 171.567Z" fill="#24FF00"/>
<path d="M180.509 171.567C180.509 166.58 184.55 162.537 189.535 162.537C194.519 162.537 198.56 166.58 198.56 171.567C198.56 176.554 194.519 180.597 189.535 180.597C184.55 180.597 180.509 176.554 180.509 171.567Z" fill="#24FF00"/>
<path d="M144.407 171.567C144.407 166.58 148.448 162.537 153.433 162.537C158.418 162.537 162.458 166.58 162.458 171.567C162.458 176.554 158.418 180.597 153.433 180.597C148.448 180.597 144.407 176.554 144.407 171.567Z" fill="#24FF00"/>
<path d="M108.306 171.567C108.306 166.58 112.346 162.537 117.331 162.537C122.316 162.537 126.357 166.58 126.357 171.567C126.357 176.554 122.316 180.597 117.331 180.597C112.346 180.597 108.306 176.554 108.306 171.567Z" fill="#24FF00"/>
<path d="M72.2037 171.567C72.2037 166.58 76.2446 162.537 81.2292 162.537C86.2138 162.537 90.2546 166.58 90.2546 171.567C90.2546 176.554 86.2138 180.597 81.2292 180.597C76.2446 180.597 72.2037 176.554 72.2037 171.567Z" fill="#24FF00"/>
<path d="M36.1019 171.567C36.1019 166.58 40.1427 162.537 45.1273 162.537C50.112 162.537 54.1528 166.58 54.1528 171.567C54.1528 176.554 50.112 180.597 45.1273 180.597C40.1427 180.597 36.1019 176.554 36.1019 171.567Z" fill="#24FF00"/>
<path d="M4.16144e-05 171.567C4.20504e-05 166.58 4.04088 162.537 9.0255 162.537C14.0101 162.537 18.051 166.58 18.051 171.567C18.051 176.554 14.0101 180.597 9.0255 180.597C4.04088 180.597 4.11785e-05 176.554 4.16144e-05 171.567Z" fill="#24FF00"/>
<path fill-rule="evenodd" clip-rule="evenodd" d="M232.406 -0.00017078C192.529 -0.000174266 160.202 32.3422 160.202 72.2386C160.202 112.135 192.529 144.477 232.406 144.477C272.283 144.477 304.609 112.135 304.609 72.2386C304.609 32.3423 272.283 -0.000167294 232.406 -0.00017078ZM251.339 131.628L247.731 132.958C237.153 136.857 225.514 136.753 215.007 132.665L212.546 131.707C208.943 130.305 207.707 125.826 210.08 122.773L223.95 104.932C224.979 103.609 226.421 102.669 228.046 102.262C230.198 101.724 232.442 101.671 234.617 102.106L235.265 102.236C237.374 102.658 239.261 103.824 240.581 105.523L253.901 122.657C256.302 125.745 255.007 130.276 251.339 131.628ZM190.549 118.814L187.594 116.353C178.93 109.137 173.201 99.0007 171.486 87.8528L171.084 85.2417C170.496 81.4187 173.755 78.1081 177.584 78.638L199.963 81.7349C201.622 81.9645 203.157 82.744 204.321 83.9489C205.863 85.5442 207.032 87.4621 207.742 89.5642L207.954 90.1908C208.643 92.2288 208.577 94.4468 207.767 96.4399L199.595 116.549C198.123 120.172 193.553 121.316 190.549 118.814ZM171.899 55.9447L171.246 59.7352C170.582 63.5898 173.857 66.9769 177.73 66.441L199.222 63.4669C201.352 63.1721 203.305 62.1207 204.725 60.5046L205.161 60.0077C206.625 58.3409 207.701 56.3695 208.311 54.236C208.772 52.6247 208.679 50.9053 208.049 49.3527L199.54 28.4146C198.084 24.8313 193.589 23.663 190.574 26.0841L188.514 27.7376C179.722 34.7974 173.813 44.8293 171.899 55.9447ZM212.733 13.471L216.341 12.1413C226.919 8.24208 238.557 8.3463 249.064 12.4344L251.525 13.3919C255.129 14.7939 256.365 19.2728 253.991 22.3261L240.122 40.1674C239.093 41.4903 237.651 42.4302 236.026 42.8367C233.874 43.3749 231.63 43.4283 229.455 42.9931L228.806 42.8634C226.698 42.4414 224.811 41.2748 223.491 39.5766L210.17 22.4419C207.77 19.3544 209.065 14.8232 212.733 13.471ZM276.478 28.7462L273.523 26.2854C270.518 23.783 265.949 24.9271 264.477 28.5504L256.305 48.6593C255.495 50.6523 255.429 52.8703 256.118 54.9083L256.33 55.5349C257.04 57.637 258.209 59.5549 259.751 61.1502C260.915 62.3551 262.45 63.1346 264.109 63.3643L286.487 66.4611C290.317 66.9911 293.576 63.6804 292.988 59.8574L292.586 57.2463C290.871 46.0984 285.142 35.9623 276.478 28.7462ZM292.826 85.3639L292.173 89.1545C290.259 100.27 284.35 110.302 275.558 117.361L273.498 119.015C270.483 121.436 265.988 120.268 264.532 116.685L256.023 95.7465C255.392 94.1939 255.3 92.4745 255.761 90.8631C256.371 88.7296 257.447 86.7582 258.911 85.0914L259.347 84.5945C260.767 82.9784 262.72 81.927 264.85 81.6323L286.342 78.6581C290.215 78.1222 293.49 81.5094 292.826 85.3639Z" fill="#24FF00"/>
<path fill-rule="evenodd" clip-rule="evenodd" d="M74.4601 -0.000184588C34.5831 -0.000188074 2.25642 32.3422 2.25642 72.2386C2.25642 112.135 34.5831 144.477 74.4601 144.477C114.337 144.477 146.664 112.135 146.664 72.2386C146.664 32.3422 114.337 -0.000181102 74.4601 -0.000184588ZM93.3932 131.628L89.7857 132.958C79.2072 136.857 67.5688 136.753 57.0618 132.665L54.6007 131.707C50.9974 130.305 49.7612 125.826 52.1348 122.773L66.0046 104.932C67.0331 103.609 68.4752 102.669 70.1004 102.262C72.2521 101.724 74.4965 101.671 76.6714 102.106L77.3198 102.236C79.4284 102.658 81.3151 103.824 82.6353 105.523L95.9558 122.657C98.356 125.745 97.0616 130.276 93.3932 131.628ZM32.6032 118.814L29.6484 116.353C20.9839 109.137 15.255 99.0007 13.5401 87.8528L13.1384 85.2417C12.5503 81.4187 15.8092 78.108 19.6389 78.638L42.0173 81.7348C43.6767 81.9645 45.2113 82.744 46.3757 83.9489C47.9175 85.5442 49.0859 87.4621 49.7967 89.5642L50.0085 90.1908C50.6976 92.2288 50.6312 94.4468 49.8213 96.4398L41.6496 116.549C40.1772 120.172 35.6078 121.316 32.6032 118.814ZM13.953 55.9447L13.3003 59.7352C12.6365 63.5898 15.9115 66.9769 19.7841 66.441L41.2763 63.4669C43.4064 63.1721 45.3595 62.1207 46.7791 60.5046L47.2156 60.0077C48.6797 58.3408 49.7557 56.3695 50.3657 54.236C50.8264 52.6246 50.7339 50.9053 50.103 49.3527L41.5944 28.4145C40.1383 24.8313 35.6432 23.663 32.628 26.0841L30.5686 27.7376C21.7764 34.7974 15.867 44.8293 13.953 55.9447ZM54.7875 13.471L58.3949 12.1413C68.9735 8.24207 80.6118 8.34629 91.1189 12.4344L93.5799 13.3919C97.1832 14.7939 98.4195 19.2728 96.0459 22.3261L82.176 40.1674C81.1475 41.4903 79.7055 42.4302 78.0803 42.8366C75.9286 43.3748 73.6842 43.4283 71.5092 42.9931L70.8609 42.8634C68.7522 42.4414 66.8656 41.2748 65.5453 39.5765L52.2248 22.4418C49.8247 19.3544 51.1191 14.8232 54.7875 13.471ZM118.532 28.7462L115.578 26.2854C112.573 23.783 108.003 24.9271 106.531 28.5504L98.3594 48.6593C97.5495 50.6523 97.483 52.8703 98.1721 54.9083L98.384 55.5349C99.0947 57.637 100.263 59.5549 101.805 61.1502C102.969 62.3551 104.504 63.1346 106.163 63.3643L128.542 66.4611C132.371 66.9911 135.63 63.6804 135.042 59.8574L134.641 57.2463C132.926 46.0984 127.197 35.9623 118.532 28.7462ZM134.88 85.3639L134.228 89.1544C132.314 100.27 126.404 110.302 117.612 117.361L115.553 119.015C112.538 121.436 108.042 120.268 106.586 116.685L98.0777 95.7464C97.4468 94.1938 97.3543 92.4745 97.815 90.8631C98.425 88.7296 99.5009 86.7582 100.965 85.0914L101.402 84.5945C102.821 82.9784 104.774 81.927 106.904 81.6322L128.397 78.6581C132.269 78.1222 135.544 81.5093 134.88 85.3639Z" fill="#24FF00"/>
</svg>
