<svg width="48" height="48" viewBox="0 0 48 48" fill="none" xmlns="http://www.w3.org/2000/svg">
<rect x="2" y="2" width="44" height="44" stroke="#24FF00" stroke-width="4"/>
<path d="M22 34H26V38H22V34Z" fill="#24FF00"/>
<path d="M22 26H26V30H22V26Z" fill="#24FF00"/>
<path d="M22 18H26V22H22V18Z" fill="#24FF00"/>
<path d="M22 10H26V14H22V10Z" fill="#24FF00"/>
<path d="M18 28H22V32H18V28Z" fill="#24FF00"/>
<path d="M18 20H22V24H18V20Z" fill="#24FF00"/>
<path d="M18 12H22V16H18V12Z" fill="#24FF00"/>
<path d="M14 22H18V26H14V22Z" fill="#24FF00"/>
<path d="M14 14H18V18H14V14Z" fill="#24FF00"/>
<path d="M10 16H14V20H10V16Z" fill="#24FF00"/>
<path d="M26 28H30V32H26V28Z" fill="#24FF00"/>
<path d="M26 20H30V24H26V20Z" fill="#24FF00"/>
<path d="M26 12H30V16H26V12Z" fill="#24FF00"/>
<path d="M30 22H34V26H30V22Z" fill="#24FF00"/>
<path d="M30 14H34V18H30V14Z" fill="#24FF00"/>
<path d="M34 17H38V21H34V17Z" fill="#24FF00"/>
</svg>
