<svg width="48" height="48" viewBox="0 0 48 48" fill="none" xmlns="http://www.w3.org/2000/svg">
<rect x="2" y="2" width="44" height="44" stroke="#24FF00" stroke-width="4"/>
<path d="M12 12H20.4V20.4H12V12ZM27.6 12H36V20.4H27.6V12ZM12 27.6H20.4V36H12V27.6ZM30 14.4H33.6V18H30V14.4ZM14.4 30H18V33.6H14.4V30ZM22.8 12H25.2V20.4H22.8V12ZM12 22.8H20.4V25.2H12V22.8ZM27.6 22.8H30V25.2H27.6V22.8ZM32.4 22.8H36V25.2H32.4V22.8ZM22.8 27.6H25.2V30H22.8V27.6ZM22.8 32.4H25.2V36H22.8V32.4ZM27.6 27.6H30V30H27.6V27.6ZM32.4 27.6H36V31.2H32.4V27.6ZM27.6 32.4H31.2V36H27.6V32.4ZM34.8 32.4H36V33.6H34.8V32.4Z" fill="#24FF00"/>
</svg>
