<svg width="307" height="127" viewBox="0 0 307 127" fill="none" xmlns="http://www.w3.org/2000/svg">
<path d="M288.815 117.388C288.815 112.401 292.856 108.358 297.84 108.358C302.825 108.358 306.866 112.401 306.866 117.388C306.866 122.375 302.825 126.418 297.84 126.418C292.856 126.418 288.815 122.375 288.815 117.388Z" fill="#24FF00"/>
<path d="M252.713 117.388C252.713 112.401 256.754 108.358 261.738 108.358C266.723 108.358 270.764 112.401 270.764 117.388C270.764 122.375 266.723 126.418 261.738 126.418C256.754 126.418 252.713 122.375 252.713 117.388Z" fill="#24FF00"/>
<path d="M216.611 117.388C216.611 112.401 220.652 108.358 225.637 108.358C230.621 108.358 234.662 112.401 234.662 117.388C234.662 122.375 230.621 126.418 225.637 126.418C220.652 126.418 216.611 122.375 216.611 117.388Z" fill="#24FF00"/>
<path d="M180.509 117.388C180.509 112.401 184.55 108.358 189.535 108.358C194.519 108.358 198.56 112.401 198.56 117.388C198.56 122.375 194.519 126.418 189.535 126.418C184.55 126.418 180.509 122.375 180.509 117.388Z" fill="#24FF00"/>
<path d="M144.407 117.388C144.407 112.401 148.448 108.358 153.433 108.358C158.417 108.358 162.458 112.401 162.458 117.388C162.458 122.375 158.417 126.418 153.433 126.418C148.448 126.418 144.407 122.375 144.407 117.388Z" fill="#24FF00"/>
<path d="M108.306 117.388C108.306 112.401 112.346 108.358 117.331 108.358C122.316 108.358 126.356 112.401 126.356 117.388C126.356 122.375 122.316 126.418 117.331 126.418C112.346 126.418 108.306 122.375 108.306 117.388Z" fill="#24FF00"/>
<path d="M72.2037 117.388C72.2037 112.401 76.2446 108.358 81.2292 108.358C86.2138 108.358 90.2546 112.401 90.2546 117.388C90.2546 122.375 86.2138 126.418 81.2292 126.418C76.2446 126.418 72.2037 122.375 72.2037 117.388Z" fill="#24FF00"/>
<path d="M36.1019 117.388C36.1019 112.401 40.1427 108.358 45.1273 108.358C50.1119 108.358 54.1528 112.401 54.1528 117.388C54.1528 122.375 50.1119 126.418 45.1273 126.418C40.1427 126.418 36.1019 122.375 36.1019 117.388Z" fill="#24FF00"/>
<path d="M3.1307e-05 117.388C3.1743e-05 112.401 4.04086 108.358 9.02548 108.358C14.0101 108.358 18.051 112.401 18.051 117.388C18.051 122.375 14.0101 126.418 9.02548 126.418C4.04086 126.418 3.0871e-05 122.375 3.1307e-05 117.388Z" fill="#24FF00"/>
<path d="M288.815 81.2687C288.815 76.2817 292.856 72.2389 297.84 72.2389C302.825 72.2389 306.866 76.2817 306.866 81.2687C306.866 86.2558 302.825 90.2986 297.84 90.2986C292.856 90.2986 288.815 86.2558 288.815 81.2687Z" fill="#24FF00"/>
<path d="M252.713 81.2687C252.713 76.2817 256.754 72.2389 261.738 72.2389C266.723 72.2389 270.764 76.2817 270.764 81.2687C270.764 86.2558 266.723 90.2986 261.738 90.2986C256.754 90.2986 252.713 86.2558 252.713 81.2687Z" fill="#24FF00"/>
<path d="M216.611 81.2687C216.611 76.2817 220.652 72.2389 225.637 72.2389C230.621 72.2389 234.662 76.2817 234.662 81.2687C234.662 86.2558 230.621 90.2986 225.637 90.2986C220.652 90.2986 216.611 86.2558 216.611 81.2687Z" fill="#24FF00"/>
<path d="M180.509 81.2687C180.509 76.2817 184.55 72.2389 189.535 72.2389C194.519 72.2389 198.56 76.2817 198.56 81.2687C198.56 86.2558 194.519 90.2986 189.535 90.2986C184.55 90.2986 180.509 86.2557 180.509 81.2687Z" fill="#24FF00"/>
<path d="M144.407 81.2687C144.407 76.2816 148.448 72.2388 153.433 72.2388C158.418 72.2388 162.458 76.2816 162.458 81.2687C162.458 86.2557 158.417 90.2986 153.433 90.2986C148.448 90.2986 144.407 86.2557 144.407 81.2687Z" fill="#24FF00"/>
<path d="M108.306 81.2687C108.306 76.2816 112.346 72.2388 117.331 72.2388C122.316 72.2388 126.356 76.2816 126.356 81.2687C126.356 86.2557 122.316 90.2985 117.331 90.2985C112.346 90.2985 108.306 86.2557 108.306 81.2687Z" fill="#24FF00"/>
<path d="M72.2037 81.2687C72.2037 76.2816 76.2446 72.2388 81.2292 72.2388C86.2138 72.2388 90.2546 76.2816 90.2546 81.2687C90.2546 86.2557 86.2138 90.2985 81.2292 90.2985C76.2446 90.2985 72.2037 86.2557 72.2037 81.2687Z" fill="#24FF00"/>
<path d="M36.1019 81.2687C36.1019 76.2816 40.1427 72.2388 45.1273 72.2388C50.1119 72.2388 54.1528 76.2816 54.1528 81.2687C54.1528 86.2557 50.1119 90.2985 45.1273 90.2985C40.1427 90.2985 36.1019 86.2557 36.1019 81.2687Z" fill="#24FF00"/>
<path d="M3.44647e-05 81.2687C3.49006e-05 76.2816 4.04087 72.2388 9.02549 72.2388C14.0101 72.2388 18.051 76.2816 18.051 81.2687C18.051 86.2557 14.0101 90.2985 9.02549 90.2985C4.04087 90.2985 3.40287e-05 86.2557 3.44647e-05 81.2687Z" fill="#24FF00"/>
<path d="M288.815 45.1493C288.815 40.1623 292.856 36.1195 297.84 36.1195C302.825 36.1195 306.866 40.1623 306.866 45.1493C306.866 50.1364 302.825 54.1792 297.84 54.1792C292.856 54.1792 288.815 50.1364 288.815 45.1493Z" fill="#24FF00"/>
<path d="M252.713 45.1493C252.713 40.1622 256.754 36.1194 261.738 36.1194C266.723 36.1194 270.764 40.1623 270.764 45.1493C270.764 50.1364 266.723 54.1792 261.738 54.1792C256.754 54.1792 252.713 50.1364 252.713 45.1493Z" fill="#24FF00"/>
<path d="M216.611 45.1493C216.611 40.1622 220.652 36.1194 225.637 36.1194C230.621 36.1194 234.662 40.1622 234.662 45.1493C234.662 50.1364 230.621 54.1792 225.637 54.1792C220.652 54.1792 216.611 50.1364 216.611 45.1493Z" fill="#24FF00"/>
<path d="M180.509 45.1493C180.509 40.1622 184.55 36.1194 189.535 36.1194C194.519 36.1194 198.56 40.1622 198.56 45.1493C198.56 50.1364 194.519 54.1792 189.535 54.1792C184.55 54.1792 180.509 50.1363 180.509 45.1493Z" fill="#24FF00"/>
<path d="M144.407 45.1493C144.407 40.1622 148.448 36.1194 153.433 36.1194C158.418 36.1194 162.458 40.1622 162.458 45.1493C162.458 50.1363 158.418 54.1791 153.433 54.1791C148.448 54.1791 144.407 50.1363 144.407 45.1493Z" fill="#24FF00"/>
<path d="M108.306 45.1493C108.306 40.1622 112.346 36.1194 117.331 36.1194C122.316 36.1194 126.356 40.1622 126.356 45.1493C126.356 50.1363 122.316 54.1791 117.331 54.1791C112.346 54.1791 108.306 50.1363 108.306 45.1493Z" fill="#24FF00"/>
<path d="M72.2037 45.1493C72.2037 40.1622 76.2446 36.1194 81.2292 36.1194C86.2138 36.1194 90.2546 40.1622 90.2546 45.1493C90.2546 50.1363 86.2138 54.1791 81.2292 54.1791C76.2446 54.1791 72.2037 50.1363 72.2037 45.1493Z" fill="#24FF00"/>
<path d="M36.1019 45.1493C36.1019 40.1622 40.1427 36.1194 45.1273 36.1194C50.1119 36.1194 54.1528 40.1622 54.1528 45.1493C54.1528 50.1363 50.1119 54.1791 45.1273 54.1791C40.1427 54.1791 36.1019 50.1363 36.1019 45.1493Z" fill="#24FF00"/>
<path d="M3.76223e-05 45.1493C3.80583e-05 40.1622 4.04087 36.1194 9.02549 36.1194C14.0101 36.1194 18.051 40.1622 18.051 45.1493C18.051 50.1363 14.0101 54.1791 9.02549 54.1791C4.04087 54.1791 3.71863e-05 50.1363 3.76223e-05 45.1493Z" fill="#24FF00"/>
<path d="M288.815 9.0299C288.815 4.04285 292.856 5.2181e-05 297.84 5.26167e-05C302.825 5.30525e-05 306.866 4.04285 306.866 9.0299C306.866 14.017 302.825 18.0598 297.84 18.0598C292.856 18.0598 288.815 14.017 288.815 9.0299Z" fill="#24FF00"/>
<path d="M252.713 9.02989C252.713 4.04284 256.754 4.90248e-05 261.738 4.94606e-05C266.723 4.98964e-05 270.764 4.04284 270.764 9.0299C270.764 14.0169 266.723 18.0597 261.738 18.0597C256.754 18.0597 252.713 14.0169 252.713 9.02989Z" fill="#24FF00"/>
<path d="M216.611 9.02989C216.611 4.04284 220.652 4.58687e-05 225.637 4.63045e-05C230.621 4.67403e-05 234.662 4.04284 234.662 9.02989C234.662 14.0169 230.621 18.0597 225.637 18.0597C220.652 18.0597 216.611 14.0169 216.611 9.02989Z" fill="#24FF00"/>
<path d="M180.509 9.02989C180.509 4.04284 184.55 4.27126e-05 189.535 4.31484e-05C194.519 4.35841e-05 198.56 4.04284 198.56 9.02989C198.56 14.0169 194.519 18.0597 189.535 18.0597C184.55 18.0597 180.509 14.0169 180.509 9.02989Z" fill="#24FF00"/>
<path d="M144.407 9.02989C144.407 4.04283 148.448 3.95565e-05 153.433 3.99922e-05C158.418 4.0428e-05 162.458 4.04283 162.458 9.02989C162.458 14.0169 158.418 18.0597 153.433 18.0597C148.448 18.0597 144.407 14.0169 144.407 9.02989Z" fill="#24FF00"/>
<path d="M108.306 9.02988C108.306 4.04283 112.346 3.64003e-05 117.331 3.68361e-05C122.316 3.72719e-05 126.357 4.04283 126.357 9.02988C126.357 14.0169 122.316 18.0597 117.331 18.0597C112.346 18.0597 108.306 14.0169 108.306 9.02988Z" fill="#24FF00"/>
<path d="M72.2037 9.02988C72.2037 4.04283 76.2446 3.32442e-05 81.2292 3.368e-05C86.2138 3.41158e-05 90.2546 4.04283 90.2546 9.02988C90.2546 14.0169 86.2138 18.0597 81.2292 18.0597C76.2446 18.0597 72.2037 14.0169 72.2037 9.02988Z" fill="#24FF00"/>
<path d="M36.1019 9.02988C36.1019 4.04282 40.1427 3.00881e-05 45.1273 3.05239e-05C50.112 3.09596e-05 54.1528 4.04282 54.1528 9.02988C54.1528 14.0169 50.1119 18.0597 45.1273 18.0597C40.1427 18.0597 36.1019 14.0169 36.1019 9.02988Z" fill="#24FF00"/>
<path d="M4.078e-05 9.02987C4.1216e-05 4.04282 4.04087 2.6932e-05 9.02549 2.73677e-05C14.0101 2.78035e-05 18.051 4.04282 18.051 9.02987C18.051 14.0169 14.0101 18.0597 9.02549 18.0597C4.04087 18.0597 4.0344e-05 14.0169 4.078e-05 9.02987Z" fill="#24FF00"/>
</svg>
