<svg width="48" height="48" viewBox="0 0 48 48" fill="none" xmlns="http://www.w3.org/2000/svg">
<rect x="2" y="2" width="44" height="44" stroke="#24FF00" stroke-width="4"/>
<path d="M30.1597 14.4054V12.9371H28.7918V11.4683H27.4239V10H24.6881V10.0052H20.5758V11.4738H19.2079V12.9424H17.8403V14.411H16.4721V20.2852H17.8403V21.7538H19.2079V23.2224H20.5758V24.694H24.6881V24.6885H27.4239V23.2168H28.7918V21.7486H30.1597V20.2797H31.5279V14.4054H30.1597Z" fill="#24FF00"/>
<path d="M35.6292 33.5853V30.6485H34.2613V29.1799H32.8935V27.7114H31.5258V26.2366H27.4219V27.7114H24.6861V27.7169H20.5781V26.2422H16.4744V27.7169H15.1065V29.1855H13.7387V30.6538H12.3708V33.5909H11V38H24.6901V37.9944H37V33.5853H35.6292Z" fill="#24FF00"/>
</svg>
