<svg width="145" height="145" viewBox="0 0 145 145" fill="none" xmlns="http://www.w3.org/2000/svg">
<path fill-rule="evenodd" clip-rule="evenodd" d="M72.2037 -8.26062e-05C32.3267 -8.60924e-05 -5.45562e-06 32.3423 -8.94347e-06 72.2387C-1.24313e-05 112.135 32.3266 144.478 72.2036 144.478C112.081 144.478 144.407 112.135 144.407 72.2387C144.407 32.3423 112.081 -7.912e-05 72.2037 -8.26062e-05ZM91.1368 131.628L87.5293 132.958C76.9507 136.857 65.3124 136.753 54.8053 132.665L52.3443 131.707C48.741 130.305 47.5048 125.826 49.8784 122.773L63.7482 104.932C64.7766 103.609 66.2187 102.669 67.8439 102.263C69.9957 101.724 72.24 101.671 74.415 102.106L75.0633 102.236C77.172 102.658 79.0586 103.824 80.3789 105.523L93.6994 122.657C96.0995 125.745 94.8051 130.276 91.1368 131.628ZM30.3467 118.814L27.392 116.353C18.7275 109.137 12.9986 99.0008 11.2837 87.8529L10.882 85.2418C10.2939 81.4188 13.5528 78.1081 17.3825 78.6381L39.7609 81.7349C41.4203 81.9646 42.9548 82.7441 44.1193 83.949C45.661 85.5443 46.8295 87.4622 47.5402 89.5643L47.7521 90.1909C48.4412 92.2289 48.3747 94.4469 47.5648 96.4399L39.3932 116.549C37.9208 120.172 33.3514 121.316 30.3467 118.814ZM11.6966 55.9448L11.0438 59.7353C10.3801 63.5899 13.6551 66.977 17.5276 66.4411L39.0198 63.4669C41.15 63.1722 43.1031 62.1208 44.5226 60.5047L44.9591 60.0078C46.4233 58.3409 47.4992 56.3696 48.1092 54.2361C48.57 52.6247 48.4775 50.9054 47.8465 49.3528L39.3379 28.4146C37.8818 24.8314 33.3867 23.6631 30.3715 26.0841L28.3122 27.7377C19.52 34.7975 13.6106 44.8294 11.6966 55.9448ZM52.531 13.4711L56.1385 12.1414C66.717 8.24215 78.3554 8.34639 88.8625 12.4345L91.3235 13.392C94.9268 14.7939 96.163 19.2729 93.7894 22.3262L79.9195 40.1675C78.8911 41.4904 77.449 42.4302 75.8239 42.8367C73.6721 43.3749 71.4277 43.4284 69.2528 42.9932L68.6044 42.8634C66.4958 42.4415 64.6091 41.2749 63.2889 39.5766L49.9684 22.4419C47.5682 19.3545 48.8626 14.8233 52.531 13.4711ZM116.276 28.7463L113.321 26.2854C110.316 23.7831 105.747 24.9271 104.275 28.5505L96.1029 48.6593C95.293 50.6524 95.2265 52.8704 95.9156 54.9084L96.1275 55.535C96.8383 57.6371 98.0067 59.555 99.5485 61.1503C100.713 62.3552 102.247 63.1347 103.907 63.3643L126.285 66.4612C130.115 66.9911 133.374 63.6805 132.786 59.8575L132.384 57.2464C130.669 46.0985 124.94 35.9624 116.276 28.7463ZM132.624 85.364L131.971 89.1545C130.057 100.27 124.148 110.302 115.356 117.362L113.296 119.015C110.281 121.436 105.786 120.268 104.33 116.685L95.8212 95.7465C95.1903 94.1939 95.0978 92.4746 95.5585 90.8632C96.1685 88.7297 97.2445 86.7583 98.7087 85.0915L99.1451 84.5946C100.565 82.9785 102.518 81.9271 104.648 81.6323L126.14 78.6582C130.013 78.1223 133.288 81.5094 132.624 85.364Z" fill="#24FF00"/>
</svg>
